<?xml version="1.0" encoding="utf-8"?>
<!-- Generator: Adobe Illustrator 16.0.0, SVG Export Plug-In . SVG Version: 6.00 Build 0)  -->
<!DOCTYPE svg PUBLIC "-//W3C//DTD SVG 1.1//EN" "http://www.w3.org/Graphics/SVG/1.1/DTD/svg11.dtd">
<svg version="1.1" id="Layer_1" xmlns="http://www.w3.org/2000/svg" xmlns:xlink="http://www.w3.org/1999/xlink" x="0px" y="0px"
	 width="147px" height="209.331px" viewBox="0 0 147 209.331" enable-background="new 0 0 147 209.331" xml:space="preserve">
<g>
	
		<radialGradient id="SVGID_1_" cx="54.4941" cy="1739.8062" r="39.9895" gradientTransform="matrix(1 0 0 0.0731 0 41.4015)" gradientUnits="userSpaceOnUse">
		<stop  offset="0" style="stop-color:#666769"/>
		<stop  offset="0.5577" style="stop-color:#F7F7F8"/>
		<stop  offset="1" style="stop-color:#FFFFFF"/>
	</radialGradient>
	<ellipse fill="url(#SVGID_1_)" cx="54.494" cy="168.527" rx="39.991" ry="2.922"/>
	<g>
		<g>
			<g>
				<path fill="#717275" d="M92.95,79.177c-1.031,0-1.88-0.82-1.908-1.855c-0.011-0.419-0.191-10.341,7.041-16.882
					c5.041-4.558,12.305-6.267,21.588-5.079c1.045,0.134,1.785,1.09,1.65,2.135c-0.133,1.046-1.087,1.787-2.136,1.651
					c-8.108-1.038-14.34,0.342-18.515,4.1c-5.934,5.341-5.814,13.891-5.813,13.976c0.022,1.052-0.81,1.927-1.861,1.953
					C92.982,79.176,92.964,79.177,92.95,79.177z"/>
			</g>
			<g>
				<g>
					<path fill="#FAAF40" d="M125.35,53.9c-0.054,0-0.107-0.002-0.16-0.007c-1.051-0.087-1.832-1.009-1.745-2.06l1.013-12.201
						c0.085-1.051,1.004-1.835,2.06-1.745c1.05,0.087,1.83,1.009,1.744,2.06l-1.012,12.201C127.167,53.146,126.332,53.9,125.35,53.9
						z"/>
				</g>
				<g>
					<path fill="#FAAF40" d="M129.293,56.292c-0.548,0-1.09-0.234-1.468-0.688c-0.675-0.81-0.565-2.013,0.244-2.688l8.064-6.721
						c0.809-0.675,2.012-0.566,2.688,0.245c0.675,0.81,0.566,2.013-0.244,2.688l-8.064,6.721
						C130.158,56.146,129.723,56.292,129.293,56.292z"/>
				</g>
				<g>
					<path fill="#FAAF40" d="M143.556,62.33c-0.103,0-0.208-0.008-0.313-0.026l-12.971-2.146c-1.04-0.172-1.743-1.155-1.572-2.195
						c0.173-1.04,1.153-1.74,2.196-1.571l12.969,2.146c1.041,0.172,1.744,1.155,1.571,2.195
						C145.282,61.667,144.473,62.33,143.556,62.33z"/>
				</g>
				<g>
					<path fill="#FAAF40" d="M134.688,72.559c-0.581,0-1.154-0.264-1.529-0.765l-6.303-8.413c-0.631-0.844-0.46-2.041,0.384-2.672
						c0.846-0.631,2.041-0.46,2.673,0.383l6.303,8.413c0.631,0.844,0.458,2.041-0.384,2.672
						C135.487,72.435,135.085,72.559,134.688,72.559z"/>
				</g>
				<g>
					<path fill="#FAAF40" d="M122.855,78.164c-0.083,0-0.162-0.005-0.246-0.016c-1.046-0.134-1.784-1.091-1.65-2.136l1.658-12.918
						c0.134-1.045,1.098-1.78,2.136-1.65c1.047,0.135,1.784,1.091,1.649,2.136l-1.655,12.917
						C124.623,77.461,123.801,78.164,122.855,78.164z"/>
				</g>
			</g>
		</g>
		<path fill="#282425" d="M100.469,92.605c-1.404,1.402-3.678,1.402-5.078,0L77.617,74.83c-1.403-1.402-1.403-3.676,0-5.079
			l7.814-7.815c1.402-1.403,3.676-1.403,5.078,0l17.775,17.775c1.401,1.402,1.401,3.676,0,5.079L100.469,92.605z"/>
		<radialGradient id="SVGID_2_" cx="57.3281" cy="93.2065" r="37.7148" gradientUnits="userSpaceOnUse">
			<stop  offset="0" style="stop-color:#353435"/>
			<stop  offset="1" style="stop-color:#231F20"/>
		</radialGradient>
		<circle fill="url(#SVGID_2_)" cx="54.494" cy="115.571" r="52.957"/>
		<g opacity="0.1">
			<g>
				<linearGradient id="SVGID_3_" gradientUnits="userSpaceOnUse" x1="21.0029" y1="83.1597" x2="59.4746" y2="83.1597">
					<stop  offset="0" style="stop-color:#FFFFFF"/>
					<stop  offset="1" style="stop-color:#231F20"/>
				</linearGradient>
				<path fill="url(#SVGID_3_)" d="M23.185,94.556c-0.239,0-0.482-0.039-0.72-0.123c-1.136-0.397-1.737-1.642-1.339-2.779
					c2.593-7.415,7.851-13.402,14.807-16.86c6.972-3.466,14.814-3.976,22.081-1.436c1.138,0.397,1.737,1.642,1.338,2.779
					c-0.397,1.138-1.642,1.736-2.777,1.339c-6.148-2.15-12.789-1.715-18.7,1.224c-5.93,2.948-10.416,8.059-12.631,14.394
					C24.93,93.993,24.087,94.556,23.185,94.556z"/>
			</g>
		</g>
	</g>
</g>
</svg>
