<?xml version="1.0" encoding="utf-8"?>
<!-- Generator: Adobe Illustrator 16.0.0, SVG Export Plug-In . SVG Version: 6.00 Build 0)  -->
<!DOCTYPE svg PUBLIC "-//W3C//DTD SVG 1.1//EN" "http://www.w3.org/Graphics/SVG/1.1/DTD/svg11.dtd">
<svg version="1.1" id="Layer_1" xmlns="http://www.w3.org/2000/svg" xmlns:xlink="http://www.w3.org/1999/xlink" x="0px" y="0px"
	 width="331.5px" height="250px" viewBox="0 0 331.5 250" enable-background="new 0 0 331.5 250" xml:space="preserve">
<g>
	<linearGradient id="SVGID_1_" gradientUnits="userSpaceOnUse" x1="4.3066" y1="200.0146" x2="252.2014" y2="105.9553">
		<stop  offset="0" style="stop-color:#EFA982"/>
		<stop  offset="0.1536" style="stop-color:#ECA178"/>
		<stop  offset="0.4378" style="stop-color:#E68D5F"/>
		<stop  offset="0.8184" style="stop-color:#DC6E36"/>
		<stop  offset="1" style="stop-color:#D85D27"/>
	</linearGradient>
	<path fill="url(#SVGID_1_)" d="M327.541,98.2c11.706,46.867-50.731,102.823-139.454,124.984
		c-88.725,22.161-170.14,2.134-181.846-44.732C-5.464,131.585,56.972,75.627,145.696,53.466
		C234.421,31.305,315.835,51.333,327.541,98.2z"/>
	<path fill="#EFA177" d="M6.241,178.451c0,0-0.333-1.556-0.958-4.471c-0.087-0.741-0.186-1.569-0.293-2.481
		c-0.097-0.913-0.268-1.909-0.252-2.994c-0.025-1.085-0.051-2.25-0.08-3.494c0.087-1.242,0.18-2.561,0.277-3.955
		c0.583-5.553,2.178-12.254,5.42-19.359c3.228-7.104,7.977-14.606,14.142-21.963c6.167-7.358,13.746-14.541,22.338-21.384
		c8.599-6.843,18.316-13.223,28.793-19.027c10.466-5.832,21.73-11.028,33.452-15.571c11.723-4.545,23.915-8.424,36.295-11.564
		c3.135-0.725,6.191-1.473,9.316-2.147l4.695-0.963c1.563-0.328,3.126-0.642,4.693-0.904c3.133-0.549,6.252-1.142,9.389-1.573
		c1.564-0.234,3.128-0.467,4.688-0.701c1.566-0.192,3.13-0.384,4.689-0.575c12.481-1.502,24.865-2.212,36.846-1.986
		c11.977,0.196,23.553,1.251,34.359,3.251c10.801,2,20.867,4.774,29.77,8.371c8.9,3.594,16.621,7.98,22.809,12.734
		c6.202,4.747,10.76,9.913,13.886,14.539c0.741,1.185,1.442,2.306,2.104,3.361c0.56,1.111,1.085,2.152,1.573,3.121
		c0.523,0.951,0.84,1.908,1.184,2.76c0.334,0.855,0.637,1.631,0.908,2.327c0.82,2.869,1.257,4.399,1.257,4.399
		s-0.484-1.513-1.392-4.35c-1.165-2.729-2.788-6.827-6.057-11.326c-3.203-4.509-7.824-9.503-14.054-14.046
		c-6.224-4.542-13.935-8.684-22.763-12.137c-8.844-3.427-18.841-6.03-29.557-7.856c-1.333-0.263-2.695-0.415-4.057-0.621
		c-1.365-0.188-2.735-0.401-4.119-0.575c-1.388-0.149-2.783-0.3-4.187-0.451c-1.402-0.161-2.814-0.305-4.24-0.394
		c-2.849-0.215-5.724-0.447-8.638-0.555c-1.455-0.06-2.916-0.16-4.387-0.188c-1.471-0.025-2.949-0.05-4.432-0.076
		c-11.87-0.168-24.146,0.594-36.516,2.142c-1.547,0.197-3.096,0.395-4.646,0.592c-1.547,0.239-3.096,0.478-4.646,0.717
		c-3.108,0.442-6.199,1.045-9.305,1.604c-1.555,0.267-3.099,0.585-4.641,0.917l-4.631,0.972c-3.083,0.677-6.201,1.464-9.262,2.174
		c-12.293,3.057-24.405,6.847-36.051,11.299c-11.646,4.451-22.837,9.55-33.233,15.28C66.348,87.064,56.616,93.202,48.013,99.86
		c-8.599,6.65-16.197,13.649-22.391,20.833c-6.167,7.199-11.027,14.479-14.382,21.416c-3.362,6.939-5.092,13.52-5.798,19.006
		c-0.769,5.508-0.274,9.885-0.02,12.84C5.957,176.886,6.241,178.451,6.241,178.451z"/>
	<linearGradient id="SVGID_2_" gradientUnits="userSpaceOnUse" x1="180.1934" y1="297.9082" x2="154.7007" y2="84.2974">
		<stop  offset="0" style="stop-color:#FFD388"/>
		<stop  offset="0.1649" style="stop-color:#FECD7E"/>
		<stop  offset="0.4699" style="stop-color:#FAC061"/>
		<stop  offset="0.8786" style="stop-color:#F5AA2E"/>
		<stop  offset="1" style="stop-color:#F3A41E"/>
	</linearGradient>
	<path fill="url(#SVGID_2_)" d="M312.418,170.233c-14.16,49.146-94.012,69.289-178.352,44.988
		C49.725,190.921-7.167,131.38,6.993,82.233c14.16-49.146,94.011-69.288,178.352-44.986
		C269.687,61.547,326.578,121.088,312.418,170.233z"/>
	<g>
		<path fill="#FCB86B" d="M312.841,170.355l-0.846-0.243c6.804-23.613-2.605-50.385-26.494-75.385
			c-23.947-25.063-59.561-45.326-100.277-57.058c-40.717-11.731-81.654-13.524-115.265-5.045
			C36.43,41.081,14.219,58.743,7.415,82.355l-0.844-0.244c6.893-23.925,29.329-41.803,63.172-50.34
			c33.762-8.515,74.858-6.721,115.724,5.053c40.864,11.774,76.616,32.122,100.671,57.295
			C310.251,119.355,319.733,146.43,312.841,170.355z"/>
	</g>
	<linearGradient id="SVGID_3_" gradientUnits="userSpaceOnUse" x1="234.7529" y1="175.9863" x2="28.7812" y2="50.0372">
		<stop  offset="0" style="stop-color:#FFFFFF"/>
		<stop  offset="0.048" style="stop-color:#FAFAFA"/>
		<stop  offset="0.6723" style="stop-color:#D9DADC"/>
		<stop  offset="1" style="stop-color:#CDCFD0"/>
	</linearGradient>
	<ellipse fill="url(#SVGID_3_)" cx="153.391" cy="126.235" rx="148.561" ry="87.465"/>
	<path fill="#FFFFFF" d="M4.831,126.235c0,0,0.039-1.473,0.111-4.234c0.12-1.374,0.303-3.075,0.573-5.065
		c0.195-0.985,0.406-2.044,0.63-3.174c0.058-0.283,0.115-0.569,0.175-0.86c0.082-0.286,0.164-0.576,0.248-0.87
		c0.17-0.588,0.345-1.193,0.525-1.814c1.475-4.955,4.008-10.792,8.012-16.815c1.962-3.038,4.376-6.042,7.033-9.106
		c0.68-0.752,1.399-1.485,2.117-2.237c0.732-0.736,1.423-1.537,2.221-2.242c1.568-1.439,3.112-2.982,4.848-4.375
		c6.778-5.762,14.812-11.188,23.854-15.882c1.131-0.585,2.27-1.175,3.416-1.769c1.167-0.55,2.341-1.104,3.523-1.663
		c2.345-1.158,4.811-2.117,7.26-3.191c2.483-0.99,4.999-1.983,7.571-2.891c2.585-0.869,5.175-1.814,7.844-2.583
		c10.617-3.259,21.839-5.811,33.382-7.442c11.538-1.661,23.375-2.521,35.217-2.572c2.988,0.061,5.893,0.065,8.859,0.187
		c2.959,0.162,5.929,0.224,8.863,0.492c1.47,0.115,2.938,0.228,4.405,0.341c1.466,0.121,2.925,0.305,4.384,0.454
		c1.458,0.167,2.918,0.29,4.367,0.495c1.448,0.201,2.895,0.401,4.338,0.601c11.544,1.631,22.767,4.184,33.383,7.442
		c5.315,1.612,10.461,3.463,15.416,5.47c2.449,1.075,4.916,2.034,7.262,3.194c1.181,0.557,2.355,1.111,3.522,1.661
		c1.146,0.595,2.285,1.185,3.415,1.77c9.043,4.694,17.076,10.121,23.854,15.883c1.735,1.393,3.279,2.937,4.849,4.375
		c0.797,0.707,1.487,1.507,2.221,2.243c0.717,0.752,1.438,1.483,2.117,2.236c2.657,3.065,5.072,6.069,7.033,9.107
		c4.004,6.024,6.535,11.861,8.011,16.816c0.181,0.622,0.354,1.227,0.525,1.814c0.084,0.294,0.167,0.585,0.248,0.87
		c0.06,0.292,0.117,0.578,0.174,0.861c0.226,1.13,0.437,2.188,0.632,3.173c0.27,1.989,0.452,3.688,0.572,5.063
		c0.072,2.762,0.109,4.236,0.109,4.236s-0.088-1.471-0.253-4.225c-0.166-1.368-0.405-3.054-0.739-5.019
		c-0.465-1.942-0.906-4.194-1.759-6.62c-1.585-4.872-4.233-10.575-8.331-16.416c-4.072-5.854-9.572-11.818-16.362-17.377
		c-6.771-5.579-14.78-10.813-23.782-15.312c-8.98-4.54-18.886-8.451-29.402-11.616c-10.514-3.168-21.629-5.638-33.063-7.194
		c-1.429-0.19-2.861-0.381-4.296-0.572c-1.435-0.196-2.882-0.309-4.324-0.468c-1.445-0.14-2.89-0.314-4.342-0.426
		c-1.452-0.105-2.906-0.21-4.362-0.315c-2.912-0.253-5.825-0.296-8.742-0.442c-2.913-0.108-5.901-0.089-8.803-0.147
		c-11.721-0.008-23.443,0.784-34.871,2.369c-11.433,1.557-22.549,4.026-33.062,7.195c-10.516,3.165-20.424,7.071-29.403,11.614
		c-9.001,4.499-17.01,9.734-23.782,15.313c-1.735,1.348-3.276,2.845-4.846,4.24c-0.799,0.684-1.489,1.461-2.222,2.176
		c-0.715,0.734-1.45,1.432-2.136,2.159c-2.691,2.953-5.149,5.855-7.158,8.802c-4.097,5.842-6.746,11.545-8.331,16.418
		c-0.852,2.425-1.294,4.678-1.758,6.62c-0.333,1.963-0.573,3.647-0.739,5.016C4.919,124.764,4.831,126.235,4.831,126.235z"/>
	<g>
		<path fill="#D95C26" d="M64.664,120.42l4.268,1.353c-0.654,2.379-1.742,4.146-3.264,5.3c-1.522,1.155-3.452,1.732-5.792,1.732
			c-2.894,0-5.273-0.988-7.137-2.967c-1.863-1.977-2.795-4.68-2.795-8.11c0-3.628,0.937-6.445,2.81-8.453s4.336-3.011,7.39-3.011
			c2.666,0,4.832,0.788,6.497,2.364c0.991,0.932,1.735,2.27,2.23,4.015l-4.356,1.041c-0.258-1.13-0.795-2.022-1.613-2.676
			s-1.812-0.981-2.981-0.981c-1.616,0-2.927,0.58-3.933,1.739c-1.006,1.16-1.509,3.039-1.509,5.635c0,2.756,0.496,4.718,1.487,5.888
			c0.991,1.17,2.28,1.754,3.866,1.754c1.169,0,2.176-0.372,3.019-1.115C63.693,123.186,64.297,122.016,64.664,120.42z"/>
		<path fill="#D95C26" d="M72.723,128.435v-21.797h4.401v8.579h8.624v-8.579h4.401v21.797h-4.401v-9.531h-8.624v9.531H72.723z"/>
		<path fill="#D95C26" d="M93.806,117.669c0-2.22,0.332-4.083,0.996-5.59c0.496-1.11,1.172-2.106,2.03-2.989
			c0.857-0.882,1.796-1.536,2.817-1.962c1.358-0.575,2.924-0.862,4.698-0.862c3.212,0,5.781,0.996,7.709,2.988
			c1.928,1.992,2.892,4.763,2.892,8.312c0,3.519-0.957,6.272-2.87,8.26c-1.913,1.986-4.47,2.98-7.672,2.98
			c-3.241,0-5.818-0.988-7.731-2.967C94.763,123.862,93.806,121.139,93.806,117.669z M98.341,117.521c0,2.468,0.57,4.339,1.71,5.613
			c1.14,1.274,2.587,1.911,4.342,1.911s3.194-0.632,4.319-1.896s1.688-3.16,1.688-5.687c0-2.498-0.548-4.361-1.643-5.591
			c-1.096-1.229-2.55-1.843-4.364-1.843s-3.276,0.622-4.386,1.866C98.896,113.137,98.341,115.013,98.341,117.521z"/>
		<path fill="#D95C26" d="M117.268,121.342l4.282-0.416c0.258,1.437,0.781,2.493,1.569,3.167c0.788,0.674,1.851,1.011,3.189,1.011
			c1.417,0,2.485-0.3,3.204-0.899s1.078-1.301,1.078-2.104c0-0.515-0.151-0.954-0.454-1.316c-0.302-0.361-0.83-0.676-1.583-0.944
			c-0.516-0.179-1.69-0.496-3.524-0.952c-2.359-0.585-4.014-1.303-4.966-2.156c-1.338-1.199-2.007-2.662-2.007-4.386
			c0-1.11,0.314-2.148,0.944-3.115c0.629-0.966,1.536-1.702,2.721-2.208c1.185-0.506,2.614-0.758,4.29-0.758
			c2.736,0,4.795,0.6,6.178,1.799c1.383,1.2,2.109,2.8,2.178,4.803l-4.401,0.193c-0.188-1.12-0.592-1.925-1.212-2.416
			s-1.549-0.736-2.788-0.736c-1.279,0-2.28,0.263-3.003,0.788c-0.466,0.337-0.699,0.788-0.699,1.353
			c0,0.516,0.218,0.957,0.654,1.323c0.555,0.466,1.903,0.952,4.044,1.457s3.725,1.028,4.75,1.569
			c1.026,0.54,1.829,1.278,2.409,2.215c0.58,0.937,0.87,2.094,0.87,3.472c0,1.249-0.347,2.418-1.041,3.509
			c-0.694,1.09-1.675,1.9-2.944,2.431c-1.269,0.53-2.85,0.796-4.743,0.796c-2.756,0-4.872-0.637-6.349-1.911
			C118.438,125.637,117.556,123.78,117.268,121.342z"/>
		<path fill="#D95C26" d="M138.693,128.435v-21.797h16.162v3.688h-11.761v4.832h10.944v3.672h-10.944v5.933h12.177v3.673H138.693z"
			/>
		<path fill="#D95C26" d="M167.479,106.637h8.712c1.726,0,3.012,0.072,3.859,0.215c0.848,0.144,1.605,0.444,2.274,0.9
			s1.227,1.063,1.673,1.821c0.445,0.758,0.669,1.608,0.669,2.55c0,1.021-0.274,1.958-0.825,2.81s-1.296,1.492-2.238,1.918
			c1.328,0.387,2.35,1.046,3.063,1.978s1.07,2.027,1.07,3.286c0,0.991-0.23,1.955-0.69,2.892c-0.461,0.938-1.092,1.686-1.889,2.245
			c-0.799,0.56-1.782,0.905-2.951,1.033c-0.734,0.079-2.504,0.13-5.309,0.149h-7.419V106.637z M171.88,110.265v5.04h2.884
			c1.715,0,2.78-0.024,3.196-0.074c0.754-0.089,1.346-0.349,1.777-0.78c0.432-0.432,0.646-0.999,0.646-1.703
			c0-0.674-0.186-1.222-0.558-1.643c-0.372-0.421-0.925-0.676-1.657-0.766c-0.437-0.049-1.69-0.074-3.762-0.074H171.88z
			 M171.88,118.933v5.829h4.073c1.586,0,2.593-0.045,3.019-0.134c0.654-0.119,1.187-0.409,1.598-0.87
			c0.412-0.461,0.617-1.078,0.617-1.851c0-0.654-0.158-1.209-0.476-1.665s-0.775-0.788-1.375-0.996
			c-0.601-0.208-1.901-0.313-3.903-0.313H171.88z"/>
		<path fill="#D95C26" d="M188.562,117.669c0-2.22,0.332-4.083,0.996-5.59c0.496-1.11,1.172-2.106,2.029-2.989
			c0.857-0.882,1.797-1.536,2.818-1.962c1.357-0.575,2.924-0.862,4.697-0.862c3.213,0,5.781,0.996,7.71,2.988
			c1.928,1.992,2.892,4.763,2.892,8.312c0,3.519-0.957,6.272-2.869,8.26c-1.914,1.986-4.471,2.98-7.672,2.98
			c-3.242,0-5.818-0.988-7.732-2.967C189.519,123.862,188.562,121.139,188.562,117.669z M193.097,117.521
			c0,2.468,0.57,4.339,1.709,5.613c1.141,1.274,2.588,1.911,4.342,1.911c1.755,0,3.194-0.632,4.319-1.896s1.688-3.16,1.688-5.687
			c0-2.498-0.549-4.361-1.644-5.591c-1.096-1.229-2.55-1.843-4.364-1.843c-1.813,0-3.275,0.622-4.386,1.866
			C193.651,113.137,193.097,115.013,193.097,117.521z"/>
		<path fill="#D95C26" d="M213.079,128.435v-21.797h6.588l3.955,14.868l3.91-14.868h6.602v21.797h-4.09v-17.159l-4.326,17.159
			h-4.237l-4.312-17.159v17.159H213.079z"/>
		<path fill="#D95C26" d="M238.52,106.637h8.712c1.726,0,3.012,0.072,3.859,0.215c0.848,0.144,1.605,0.444,2.274,0.9
			s1.227,1.063,1.673,1.821c0.445,0.758,0.669,1.608,0.669,2.55c0,1.021-0.274,1.958-0.825,2.81s-1.296,1.492-2.238,1.918
			c1.328,0.387,2.35,1.046,3.063,1.978s1.07,2.027,1.07,3.286c0,0.991-0.23,1.955-0.69,2.892c-0.461,0.938-1.092,1.686-1.889,2.245
			c-0.799,0.56-1.782,0.905-2.951,1.033c-0.734,0.079-2.504,0.13-5.309,0.149h-7.419V106.637z M242.921,110.265v5.04h2.884
			c1.715,0,2.78-0.024,3.196-0.074c0.754-0.089,1.346-0.349,1.777-0.78c0.432-0.432,0.646-0.999,0.646-1.703
			c0-0.674-0.186-1.222-0.558-1.643c-0.372-0.421-0.925-0.676-1.657-0.766c-0.437-0.049-1.69-0.074-3.762-0.074H242.921z
			 M242.921,118.933v5.829h4.073c1.586,0,2.593-0.045,3.019-0.134c0.654-0.119,1.187-0.409,1.598-0.87
			c0.412-0.461,0.617-1.078,0.617-1.851c0-0.654-0.158-1.209-0.476-1.665s-0.775-0.788-1.375-0.996
			c-0.601-0.208-1.901-0.313-3.903-0.313H242.921z"/>
		<path fill="#D95C26" d="M117.409,164.975v-21.797h4.401v21.797H117.409z"/>
		<path fill="#D95C26" d="M139.949,156.96l4.268,1.354c-0.654,2.379-1.742,4.146-3.264,5.301c-1.522,1.154-3.452,1.732-5.792,1.732
			c-2.894,0-5.273-0.989-7.137-2.967c-1.863-1.977-2.795-4.681-2.795-8.11c0-3.628,0.937-6.445,2.81-8.452
			c1.874-2.008,4.336-3.012,7.39-3.012c2.666,0,4.832,0.789,6.497,2.364c0.991,0.933,1.735,2.271,2.23,4.015l-4.356,1.041
			c-0.258-1.131-0.795-2.022-1.613-2.677s-1.812-0.981-2.981-0.981c-1.616,0-2.927,0.58-3.933,1.74
			c-1.006,1.159-1.509,3.038-1.509,5.635c0,2.756,0.496,4.719,1.487,5.888c0.991,1.17,2.28,1.755,3.866,1.755
			c1.169,0,2.176-0.372,3.019-1.115C138.978,159.726,139.583,158.557,139.949,156.96z"/>
		<path fill="#D95C26" d="M147.101,154.21c0-2.221,0.332-4.084,0.996-5.59c0.496-1.111,1.172-2.107,2.03-2.989
			c0.857-0.882,1.796-1.536,2.817-1.962c1.357-0.575,2.924-0.863,4.698-0.863c3.212,0,5.781,0.996,7.71,2.988
			c1.928,1.992,2.891,4.764,2.891,8.313c0,3.519-0.956,6.271-2.869,8.259s-4.471,2.981-7.672,2.981
			c-3.241,0-5.818-0.989-7.731-2.967C148.058,160.403,147.101,157.679,147.101,154.21z M151.636,154.062
			c0,2.468,0.57,4.339,1.71,5.612c1.14,1.274,2.587,1.911,4.342,1.911s3.194-0.633,4.319-1.896s1.688-3.159,1.688-5.687
			c0-2.498-0.548-4.361-1.643-5.591c-1.096-1.229-2.551-1.844-4.364-1.844s-3.276,0.623-4.386,1.866
			C152.191,149.678,151.636,151.554,151.636,154.062z"/>
		<path fill="#D95C26" d="M171.723,164.975v-21.797h4.282l8.921,14.556v-14.556h4.089v21.797h-4.416l-8.787-14.214v14.214H171.723z"
			/>
	</g>
</g>
</svg>
