<?xml version="1.0" encoding="utf-8"?>
<!-- Generator: Adobe Illustrator 16.0.0, SVG Export Plug-In . SVG Version: 6.00 Build 0)  -->
<!DOCTYPE svg PUBLIC "-//W3C//DTD SVG 1.1//EN" "http://www.w3.org/Graphics/SVG/1.1/DTD/svg11.dtd">
<svg version="1.1" id="Layer_1" xmlns="http://www.w3.org/2000/svg" xmlns:xlink="http://www.w3.org/1999/xlink" x="0px" y="0px"
	 width="331.5px" height="250px" viewBox="0 0 331.5 250" enable-background="new 0 0 331.5 250" xml:space="preserve">
<g>
	
		<linearGradient id="SVGID_1_" gradientUnits="userSpaceOnUse" x1="154.5791" y1="83.4854" x2="402.4743" y2="-10.5742" gradientTransform="matrix(0.8469 0.5317 -0.5317 0.8469 -90.4771 -45.2383)">
		<stop  offset="0" style="stop-color:#EFA982"/>
		<stop  offset="0.1536" style="stop-color:#ECA178"/>
		<stop  offset="0.4378" style="stop-color:#E68D5F"/>
		<stop  offset="0.8184" style="stop-color:#DC6E36"/>
		<stop  offset="1" style="stop-color:#D85D27"/>
	</linearGradient>
	<path fill="url(#SVGID_1_)" d="M323.951,193.277c-15.005,45.916-97.636,60.113-184.563,31.711
		C52.462,196.584-5.845,136.336,9.159,90.418c15.003-45.917,97.635-60.115,184.563-31.711
		C280.648,87.11,338.954,147.359,323.951,193.277z"/>
	<path fill="#FCCAB1" d="M9.159,90.418c0,0,0.544-1.494,1.564-4.295c0.321-0.674,0.678-1.428,1.071-2.257
		c0.403-0.825,0.788-1.76,1.378-2.67c0.557-0.932,1.153-1.933,1.792-3.001c0.733-1.005,1.513-2.074,2.336-3.203
		c3.447-4.392,8.36-9.22,14.884-13.514c6.511-4.3,14.521-8.13,23.654-11.082c9.135-2.955,19.373-5.008,30.289-6.235
		c10.921-1.223,22.544-1.461,34.504-0.806c11.964,0.626,24.266,2.213,36.609,4.598c12.346,2.383,24.733,5.581,36.889,9.503
		c3.041,1.053,6.026,2.044,9.033,3.134l4.486,1.68c1.499,0.553,2.989,1.119,4.457,1.73c2.945,1.201,5.902,2.357,8.788,3.66
		c1.45,0.634,2.897,1.267,4.343,1.898c1.428,0.67,2.854,1.338,4.276,2.005c11.371,5.365,22.237,11.347,32.264,17.908
		c10.039,6.533,19.282,13.583,27.371,21.022c8.085,7.436,15.136,15.138,20.764,22.917c5.627,7.776,9.834,15.596,12.547,22.912
		c2.729,7.318,3.843,14.116,4.031,19.696c-0.003,1.397-0.005,2.72-0.007,3.964c-0.115,1.238-0.225,2.4-0.326,3.48
		c-0.062,1.084-0.303,2.063-0.465,2.967c-0.172,0.901-0.327,1.721-0.467,2.453c-0.831,2.866-1.274,4.395-1.274,4.395
		s0.394-1.539,1.134-4.425c0.464-2.931,1.269-7.265,0.893-12.812c-0.316-5.521-1.575-12.209-4.437-19.37
		c-2.855-7.155-7.184-14.763-12.824-22.381c-5.669-7.604-12.752-15.125-20.855-22.369c-0.99-0.931-2.063-1.785-3.106-2.683
		c-1.057-0.885-2.104-1.794-3.184-2.677c-1.096-0.864-2.198-1.733-3.305-2.608c-1.104-0.881-2.223-1.754-3.383-2.587
		c-2.297-1.696-4.61-3.423-7.021-5.062c-1.201-0.826-2.385-1.687-3.616-2.492c-1.232-0.804-2.47-1.611-3.713-2.42
		c-9.964-6.454-20.765-12.334-32.065-17.6c-1.415-0.655-2.831-1.312-4.251-1.97c-1.437-0.62-2.875-1.24-4.316-1.862
		c-2.867-1.279-5.806-2.412-8.731-3.589c-1.46-0.601-2.937-1.152-4.418-1.69l-4.44-1.639c-2.971-1.066-6.029-2.056-9-3.082
		c-12.036-3.949-24.311-7.177-36.541-9.598c-12.229-2.423-24.42-4.053-36.271-4.729C108.654,44.977,97.148,45,86.322,46.065
		c-10.818,1.061-20.975,2.949-30.039,5.739c-9.052,2.819-17.039,6.401-23.568,10.492c-6.537,4.089-11.5,8.744-15.015,13.014
		c-3.581,4.258-5.488,8.227-6.844,10.864C9.75,88.942,9.159,90.418,9.159,90.418z"/>
	
		<linearGradient id="SVGID_2_" gradientUnits="userSpaceOnUse" x1="187.9482" y1="-341.6543" x2="162.4556" y2="-555.2651" gradientTransform="matrix(-0.688 0.7258 -0.7258 -0.688 -97.9748 -344.9237)">
		<stop  offset="0" style="stop-color:#FFD388"/>
		<stop  offset="0.1649" style="stop-color:#FECD7E"/>
		<stop  offset="0.4699" style="stop-color:#FAC061"/>
		<stop  offset="0.8786" style="stop-color:#F5AA2E"/>
		<stop  offset="1" style="stop-color:#F3A41E"/>
	</linearGradient>
	<path fill="url(#SVGID_2_)" d="M22.378,210.32C-3.55,166.232,36.767,94.423,112.425,49.929
		c75.66-44.493,158.011-44.822,183.938-0.734c25.926,44.087-14.391,115.896-90.05,160.389
		C130.655,254.078,48.306,254.405,22.378,210.32z"/>
	<path fill="#FDC995" d="M22.378,210.32c0,0-0.759-1.376-2.181-3.955c-0.338-0.653-0.645-1.42-1.021-2.244
		c-0.354-0.835-0.805-1.723-1.171-2.729c-0.35-1.012-0.725-2.101-1.126-3.262c-0.098-0.291-0.196-0.587-0.297-0.887
		c-0.077-0.307-0.156-0.619-0.235-0.936c-0.158-0.633-0.323-1.283-0.49-1.953c-1.29-5.357-2.067-12.098-1.58-19.791
		c0.04-1.932,0.372-3.895,0.583-5.932c0.091-1.021,0.317-2.035,0.492-3.072c0.187-1.037,0.375-2.088,0.566-3.15
		c0.969-4.212,2.132-8.616,3.771-13.066c0.408-1.113,0.793-2.248,1.233-3.375c0.463-1.117,0.932-2.244,1.405-3.384
		c0.238-0.569,0.475-1.141,0.714-1.716c0.264-0.563,0.529-1.129,0.795-1.697c0.535-1.136,1.076-2.283,1.618-3.438
		c0.561-1.148,1.184-2.276,1.781-3.43c0.613-1.144,1.182-2.326,1.865-3.454c1.328-2.278,2.629-4.623,4.121-6.892
		c0.731-1.143,1.443-2.31,2.207-3.454c0.78-1.134,1.564-2.273,2.353-3.421c0.396-0.573,0.792-1.149,1.189-1.726
		c0.418-0.562,0.837-1.126,1.258-1.691c0.841-1.131,1.687-2.269,2.536-3.412C46.27,103.759,50,99.28,54.038,94.95
		c8.023-8.704,16.988-17.078,26.727-24.797c9.727-7.746,20.122-14.906,31.01-21.369c2.743-1.539,5.441-3.12,8.224-4.61
		c2.807-1.449,5.565-3.001,8.406-4.343c1.41-0.691,2.821-1.381,4.229-2.07c1.41-0.687,2.85-1.305,4.27-1.96
		c1.43-0.636,2.839-1.31,4.275-1.913c1.439-0.6,2.877-1.201,4.311-1.799c11.479-4.759,23.153-8.522,34.66-11.305
		c5.748-1.42,11.474-2.511,17.104-3.387c1.413-0.187,2.818-0.373,4.216-0.558c0.697-0.092,1.395-0.185,2.089-0.277
		c0.697-0.066,1.394-0.133,2.086-0.2c1.387-0.132,2.766-0.263,4.134-0.393c1.371-0.111,2.737-0.166,4.092-0.25
		c2.709-0.201,5.39-0.198,8.025-0.251c1.317-0.049,2.628,0.028,3.926,0.047c1.298,0.041,2.588,0.044,3.863,0.113
		c1.273,0.087,2.538,0.172,3.791,0.257c0.626,0.043,1.25,0.086,1.87,0.13c0.619,0.07,1.233,0.14,1.847,0.21
		c1.226,0.14,2.438,0.277,3.64,0.416c1.198,0.164,2.378,0.379,3.549,0.563c4.687,0.73,9.102,1.855,13.253,3.054
		c1.022,0.351,2.032,0.696,3.028,1.037c0.993,0.352,1.988,0.646,2.927,1.064c1.881,0.806,3.76,1.47,5.465,2.374
		c6.962,3.315,12.473,7.271,16.527,11.003c0.504,0.472,0.992,0.932,1.47,1.378c0.237,0.223,0.472,0.443,0.703,0.659
		c0.213,0.234,0.424,0.465,0.631,0.692c0.819,0.914,1.588,1.771,2.302,2.569c0.699,0.808,1.257,1.633,1.814,2.348
		c0.537,0.729,1.058,1.369,1.466,1.983c1.563,2.497,2.396,3.83,2.396,3.83s-0.875-1.303-2.514-3.747
		c-0.425-0.6-0.965-1.221-1.524-1.931c-0.578-0.693-1.155-1.495-1.877-2.277c-0.733-0.77-1.523-1.598-2.365-2.481
		c-0.211-0.22-0.424-0.443-0.642-0.67c-0.234-0.21-0.472-0.422-0.713-0.639c-0.483-0.432-0.979-0.875-1.489-1.332
		c-4.107-3.604-9.649-7.384-16.598-10.495c-1.702-0.852-3.576-1.463-5.449-2.214c-0.932-0.39-1.925-0.66-2.91-0.982
		c-0.991-0.313-1.993-0.63-3.011-0.951c-1.033-0.265-2.08-0.532-3.14-0.803c-1.061-0.269-2.123-0.576-3.228-0.771
		c-2.196-0.435-4.432-0.939-6.757-1.232c-1.159-0.166-2.324-0.361-3.51-0.507c-1.189-0.117-2.39-0.237-3.602-0.358
		c-0.606-0.06-1.214-0.121-1.825-0.182c-0.614-0.034-1.23-0.066-1.85-0.101c-1.239-0.066-2.487-0.132-3.748-0.2
		c-1.262-0.049-2.535-0.034-3.818-0.056c-1.282,0-2.575-0.057-3.879,0.01c-2.605,0.09-5.253,0.125-7.927,0.362
		c-1.339,0.103-2.688,0.176-4.041,0.305c-1.352,0.149-2.712,0.299-4.081,0.449c-0.686,0.075-1.37,0.151-2.058,0.228
		c-0.687,0.101-1.374,0.202-2.064,0.303c-1.377,0.203-2.765,0.407-4.158,0.612c-1.391,0.227-2.781,0.502-4.183,0.753
		c-1.4,0.259-2.815,0.475-4.219,0.797c-2.812,0.609-5.66,1.172-8.493,1.92c-11.374,2.807-22.917,6.588-34.264,11.357
		c-1.418,0.599-2.837,1.2-4.259,1.802c-1.421,0.604-2.814,1.278-4.228,1.915c-1.401,0.655-2.825,1.274-4.22,1.961
		c-1.392,0.69-2.785,1.38-4.181,2.072c-2.813,1.344-5.514,2.883-8.276,4.327c-2.744,1.482-5.455,3.098-8.19,4.635
		c-10.748,6.312-21.126,13.385-30.783,21.003c-9.682,7.599-18.597,15.849-26.579,24.424c-2.031,2.111-3.907,4.329-5.807,6.49
		c-0.964,1.067-1.838,2.204-2.75,3.296c-0.899,1.104-1.816,2.185-2.69,3.29c-0.856,1.119-1.709,2.231-2.557,3.338
		c-0.424,0.553-0.847,1.104-1.268,1.655c-0.401,0.564-0.801,1.127-1.199,1.688c-0.797,1.124-1.588,2.24-2.375,3.349
		c-0.771,1.12-1.489,2.264-2.231,3.382c-1.507,2.223-2.823,4.519-4.169,6.752c-0.692,1.107-1.271,2.266-1.895,3.387
		c-0.604,1.131-1.237,2.236-1.806,3.363c-0.555,1.135-1.103,2.258-1.647,3.373c-0.271,0.558-0.542,1.113-0.81,1.666
		c-0.246,0.564-0.487,1.125-0.729,1.684c-0.483,1.117-0.963,2.225-1.438,3.32c-0.449,1.107-0.844,2.222-1.264,3.314
		c-0.872,2.174-1.52,4.373-2.206,6.505c-0.366,1.061-0.615,2.139-0.896,3.195c-0.278,1.058-0.554,2.103-0.826,3.134
		c-0.213,1.044-0.423,2.075-0.631,3.093c-0.197,1.019-0.443,2.017-0.558,3.021c-0.253,2.001-0.63,3.937-0.712,5.839
		c-0.659,7.584-0.05,14.265,1.104,19.605c0.15,0.668,0.299,1.317,0.44,1.949c0.072,0.315,0.143,0.627,0.212,0.933
		c0.092,0.301,0.184,0.597,0.274,0.888c0.362,1.164,0.701,2.256,1.018,3.272c0.333,1.011,0.752,1.903,1.076,2.746
		c0.349,0.831,0.629,1.604,0.947,2.27C21.663,208.922,22.378,210.32,22.378,210.32z"/>
	<linearGradient id="SVGID_3_" gradientUnits="userSpaceOnUse" x1="165.0996" y1="140.7256" x2="61.6902" y2="46.5558">
		<stop  offset="0" style="stop-color:#FFFFFF"/>
		<stop  offset="0.048" style="stop-color:#FAFAFA"/>
		<stop  offset="0.6723" style="stop-color:#D9DADC"/>
		<stop  offset="1" style="stop-color:#CDCFD0"/>
	</linearGradient>
	<ellipse fill="url(#SVGID_3_)" cx="153.055" cy="129.758" rx="148.561" ry="87.466"/>
	<path fill="#FFFFFF" d="M4.494,129.758c0,0,0.04-1.473,0.111-4.234c0.12-1.373,0.303-3.075,0.573-5.065
		c0.195-0.985,0.406-2.044,0.631-3.174c0.057-0.282,0.114-0.569,0.174-0.86c0.081-0.286,0.164-0.576,0.249-0.87
		c0.17-0.588,0.345-1.192,0.525-1.813c1.475-4.956,4.007-10.793,8.011-16.816c1.962-3.038,4.377-6.042,7.034-9.106
		c0.68-0.752,1.398-1.485,2.116-2.237c0.733-0.737,1.424-1.537,2.222-2.243c1.567-1.439,3.112-2.982,4.848-4.375
		c6.778-5.762,14.812-11.188,23.854-15.883c1.131-0.585,2.27-1.175,3.415-1.768c1.167-0.551,2.342-1.105,3.522-1.663
		c2.346-1.158,4.811-2.117,7.262-3.192c2.482-0.99,4.997-1.983,7.57-2.891c2.585-0.869,5.174-1.814,7.843-2.583
		c10.618-3.259,21.84-5.811,33.384-7.441c11.538-1.661,23.375-2.521,35.216-2.572c2.989,0.062,5.893,0.065,8.861,0.187
		c2.958,0.162,5.928,0.224,8.861,0.493c1.472,0.114,2.939,0.228,4.405,0.341c1.467,0.121,2.926,0.305,4.386,0.454
		c1.457,0.167,2.917,0.29,4.366,0.495c1.448,0.201,2.895,0.401,4.338,0.601c11.544,1.63,22.767,4.183,33.384,7.442
		c5.314,1.611,10.46,3.463,15.416,5.47c2.448,1.075,4.915,2.035,7.261,3.194c1.182,0.557,2.355,1.112,3.521,1.662
		c1.146,0.594,2.285,1.184,3.416,1.769c9.042,4.694,17.075,10.121,23.854,15.883c1.735,1.393,3.279,2.937,4.849,4.374
		c0.796,0.707,1.488,1.507,2.22,2.244c0.718,0.752,1.44,1.483,2.118,2.236c2.656,3.064,5.071,6.068,7.033,9.107
		c4.003,6.024,6.535,11.861,8.011,16.816c0.179,0.622,0.354,1.227,0.525,1.814c0.084,0.294,0.166,0.585,0.248,0.87
		c0.059,0.292,0.117,0.579,0.173,0.861c0.226,1.13,0.438,2.188,0.633,3.173c0.27,1.989,0.452,3.688,0.572,5.063
		c0.072,2.762,0.109,4.236,0.109,4.236s-0.088-1.471-0.253-4.225c-0.166-1.368-0.406-3.054-0.74-5.019
		c-0.463-1.943-0.905-4.195-1.758-6.621c-1.584-4.872-4.233-10.575-8.332-16.416c-4.072-5.854-9.572-11.817-16.361-17.377
		c-6.771-5.579-14.78-10.812-23.782-15.312c-8.98-4.54-18.886-8.452-29.401-11.616c-10.515-3.168-21.63-5.637-33.063-7.194
		c-1.43-0.19-2.861-0.381-4.296-0.573c-1.434-0.195-2.882-0.309-4.323-0.468c-1.446-0.14-2.89-0.314-4.343-0.427
		c-1.452-0.104-2.906-0.21-4.362-0.315c-2.912-0.253-5.824-0.296-8.742-0.442c-2.913-0.108-5.901-0.089-8.804-0.148
		c-11.721-0.007-23.442,0.784-34.87,2.37c-11.433,1.556-22.549,4.026-33.061,7.195c-10.517,3.165-20.426,7.071-29.404,11.614
		c-9.001,4.499-17.011,9.734-23.783,15.313c-1.733,1.347-3.275,2.844-4.845,4.239c-0.799,0.685-1.488,1.461-2.223,2.177
		c-0.714,0.734-1.449,1.432-2.136,2.158c-2.69,2.953-5.149,5.855-7.158,8.803c-4.097,5.842-6.745,11.546-8.33,16.418
		c-0.852,2.425-1.295,4.678-1.759,6.621c-0.333,1.963-0.573,3.647-0.738,5.016C4.583,128.287,4.494,129.758,4.494,129.758z"/>
	<g>
		<path fill="#D95C26" d="M69.407,123.941l4.267,1.353c-0.654,2.379-1.742,4.146-3.264,5.301c-1.521,1.154-3.451,1.731-5.791,1.731
			c-2.895,0-5.273-0.989-7.137-2.966c-1.863-1.978-2.795-4.681-2.795-8.111c0-3.628,0.937-6.445,2.81-8.453
			c1.874-2.007,4.337-3.011,7.39-3.011c2.667,0,4.832,0.788,6.498,2.364c0.991,0.932,1.734,2.27,2.229,4.015l-4.356,1.041
			c-0.258-1.13-0.795-2.022-1.612-2.676c-0.818-0.654-1.813-0.981-2.981-0.981c-1.616,0-2.927,0.58-3.933,1.739
			s-1.509,3.039-1.509,5.635c0,2.756,0.495,4.718,1.486,5.887c0.991,1.17,2.279,1.755,3.866,1.755c1.169,0,2.175-0.372,3.018-1.114
			C68.436,126.707,69.04,125.538,69.407,123.941z"/>
		<path fill="#D95C26" d="M77.466,131.955v-21.796h4.4v8.579h8.624v-8.579h4.401v21.796H90.49v-9.53h-8.624v9.53H77.466z"/>
		<path fill="#D95C26" d="M98.549,121.191c0-2.22,0.332-4.083,0.996-5.59c0.496-1.11,1.172-2.106,2.029-2.989
			c0.857-0.882,1.797-1.536,2.818-1.962c1.357-0.575,2.924-0.862,4.698-0.862c3.211,0,5.781,0.996,7.709,2.988
			s2.892,4.763,2.892,8.312c0,3.519-0.956,6.272-2.869,8.259c-1.913,1.988-4.471,2.981-7.672,2.981
			c-3.242,0-5.819-0.989-7.732-2.966C99.505,127.384,98.549,124.66,98.549,121.191z M103.084,121.042
			c0,2.468,0.569,4.339,1.71,5.612c1.14,1.274,2.587,1.911,4.341,1.911c1.755,0,3.194-0.632,4.319-1.896s1.688-3.16,1.688-5.687
			c0-2.498-0.548-4.361-1.643-5.591c-1.096-1.229-2.55-1.843-4.364-1.843c-1.813,0-3.275,0.622-4.386,1.866
			C103.639,116.659,103.084,118.535,103.084,121.042z"/>
		<path fill="#D95C26" d="M122.012,124.863l4.282-0.416c0.257,1.437,0.78,2.492,1.568,3.167c0.788,0.674,1.851,1.011,3.189,1.011
			c1.417,0,2.485-0.3,3.204-0.899c0.718-0.6,1.077-1.302,1.077-2.104c0-0.515-0.15-0.954-0.453-1.316
			c-0.303-0.361-0.83-0.676-1.583-0.944c-0.516-0.179-1.69-0.496-3.524-0.952c-2.359-0.585-4.015-1.303-4.966-2.156
			c-1.338-1.199-2.007-2.662-2.007-4.386c0-1.11,0.314-2.148,0.943-3.115c0.63-0.966,1.537-1.702,2.722-2.208
			c1.184-0.506,2.614-0.758,4.289-0.758c2.735,0,4.795,0.6,6.178,1.799c1.383,1.2,2.108,2.8,2.179,4.803l-4.401,0.193
			c-0.188-1.12-0.593-1.925-1.212-2.416s-1.549-0.736-2.788-0.736c-1.278,0-2.279,0.263-3.003,0.788
			c-0.466,0.337-0.699,0.788-0.699,1.353c0,0.516,0.218,0.957,0.654,1.323c0.556,0.466,1.903,0.952,4.044,1.457
			c2.142,0.505,3.725,1.028,4.751,1.569c1.025,0.54,1.829,1.278,2.408,2.215c0.58,0.937,0.87,2.094,0.87,3.472
			c0,1.249-0.347,2.418-1.041,3.508c-0.693,1.091-1.675,1.901-2.943,2.432c-1.27,0.529-2.851,0.795-4.743,0.795
			c-2.756,0-4.872-0.637-6.349-1.91C123.181,129.158,122.299,127.302,122.012,124.863z"/>
		<path fill="#D95C26" d="M143.437,131.955v-21.796h16.161v3.688h-11.761v4.832h10.943v3.672h-10.943v5.933h12.178v3.672H143.437z"
			/>
		<path fill="#D95C26" d="M172.236,131.955v-21.796h14.942v3.688h-10.541v5.159h9.099v3.687h-9.099v9.263H172.236z"/>
		<path fill="#D95C26" d="M190.925,131.955v-21.618h4.401v17.946h10.943v3.672H190.925z"/>
		<path fill="#D95C26" d="M229.063,131.955h-4.787l-1.903-4.951h-8.713l-1.799,4.951h-4.669l8.49-21.796h4.653L229.063,131.955z
			 M220.959,123.332l-3.003-8.088l-2.944,8.088H220.959z"/>
		<path fill="#D95C26" d="M241.537,123.941v-3.672h9.486v8.683c-0.922,0.892-2.258,1.678-4.007,2.356
			c-1.75,0.68-3.521,1.019-5.315,1.019c-2.28,0-4.268-0.478-5.963-1.435c-1.694-0.957-2.969-2.324-3.821-4.104
			s-1.278-3.715-1.278-5.806c0-2.27,0.476-4.287,1.428-6.052c0.951-1.764,2.344-3.117,4.178-4.059
			c1.397-0.724,3.137-1.085,5.219-1.085c2.706,0,4.819,0.567,6.341,1.702c1.521,1.135,2.501,2.704,2.937,4.706l-4.371,0.817
			c-0.307-1.07-0.885-1.915-1.731-2.535c-0.848-0.62-1.906-0.929-3.175-0.929c-1.923,0-3.452,0.609-4.587,1.829
			s-1.702,3.028-1.702,5.427c0,2.587,0.574,4.527,1.725,5.821c1.149,1.294,2.656,1.94,4.52,1.94c0.922,0,1.847-0.181,2.773-0.542
			c0.927-0.362,1.722-0.801,2.386-1.316v-2.766H241.537z"/>
		<path fill="#D95C26" d="M117.075,168.496v-21.797h4.4v21.797H117.075z"/>
		<path fill="#D95C26" d="M139.615,160.482l4.267,1.353c-0.654,2.379-1.742,4.146-3.264,5.301s-3.451,1.731-5.791,1.731
			c-2.895,0-5.273-0.988-7.137-2.966s-2.795-4.681-2.795-8.11c0-3.628,0.937-6.445,2.81-8.453c1.874-2.007,4.337-3.01,7.39-3.01
			c2.667,0,4.832,0.787,6.498,2.363c0.991,0.932,1.734,2.27,2.229,4.015l-4.356,1.04c-0.258-1.129-0.795-2.021-1.612-2.676
			c-0.818-0.654-1.813-0.98-2.981-0.98c-1.616,0-2.927,0.579-3.933,1.738c-1.006,1.16-1.509,3.039-1.509,5.636
			c0,2.756,0.495,4.718,1.486,5.888s2.279,1.754,3.866,1.754c1.169,0,2.175-0.371,3.018-1.114S139.248,162.078,139.615,160.482z"/>
		<path fill="#D95C26" d="M146.767,157.731c0-2.22,0.332-4.083,0.996-5.591c0.496-1.109,1.172-2.105,2.029-2.988
			c0.857-0.882,1.797-1.536,2.818-1.963c1.357-0.574,2.924-0.861,4.698-0.861c3.211,0,5.781,0.996,7.709,2.988
			s2.892,4.763,2.892,8.311c0,3.52-0.956,6.272-2.869,8.26s-4.471,2.98-7.672,2.98c-3.242,0-5.819-0.988-7.732-2.966
			S146.767,161.201,146.767,157.731z M151.302,157.582c0,2.469,0.569,4.34,1.71,5.613c1.14,1.273,2.587,1.91,4.341,1.91
			c1.755,0,3.194-0.631,4.319-1.895s1.688-3.16,1.688-5.688c0-2.498-0.548-4.361-1.643-5.591c-1.096-1.229-2.55-1.843-4.364-1.843
			c-1.813,0-3.275,0.621-4.386,1.865S151.302,155.075,151.302,157.582z"/>
		<path fill="#D95C26" d="M171.389,168.496v-21.797h4.282l8.921,14.557v-14.557h4.089v21.797h-4.416l-8.787-14.214v14.214H171.389z"
			/>
	</g>
</g>
</svg>
