<?xml version="1.0" encoding="utf-8"?>
<!-- Generator: Adobe Illustrator 16.0.0, SVG Export Plug-In . SVG Version: 6.00 Build 0)  -->
<!DOCTYPE svg PUBLIC "-//W3C//DTD SVG 1.1//EN" "http://www.w3.org/Graphics/SVG/1.1/DTD/svg11.dtd">
<svg version="1.1" id="Layer_1" xmlns="http://www.w3.org/2000/svg" xmlns:xlink="http://www.w3.org/1999/xlink" x="0px" y="0px"
	 width="331.5px" height="250px" viewBox="0 0 331.5 250" enable-background="new 0 0 331.5 250" xml:space="preserve">
<g>
	
		<linearGradient id="SVGID_1_" gradientUnits="userSpaceOnUse" x1="130.2188" y1="8.6812" x2="378.1139" y2="-85.3784" gradientTransform="matrix(0.7753 0.5544 -0.5718 1.0188 -82.3484 6.6719)">
		<stop  offset="0" style="stop-color:#EFA982"/>
		<stop  offset="0.1536" style="stop-color:#ECA178"/>
		<stop  offset="0.4378" style="stop-color:#E68D5F"/>
		<stop  offset="0.8184" style="stop-color:#DC6E36"/>
		<stop  offset="1" style="stop-color:#D85D27"/>
	</linearGradient>
	<path fill="url(#SVGID_1_)" d="M322.442,163.2c-17.722,54.238-98.118,76.628-179.574,50.013
		C61.416,186.599,9.749,121.057,27.469,66.819c17.723-54.236,98.122-76.628,179.576-50.012
		C288.499,43.421,340.164,108.965,322.442,163.2z"/>
	<path fill="#FCC6AA" d="M27.469,66.819c0,0,0.531-1.512,1.529-4.346c0.222-0.719,0.599-1.472,0.961-2.322
		c0.372-0.848,0.779-1.772,1.219-2.772c0.451-0.995,1.045-2.009,1.622-3.119c0.296-0.552,0.602-1.122,0.917-1.706
		c0.32-0.584,0.713-1.146,1.082-1.743c2.933-4.794,7.116-10.29,12.857-15.662c5.719-5.382,12.968-10.63,21.55-15.104
		c1.052-0.599,2.172-1.092,3.283-1.629c1.117-0.524,2.236-1.075,3.382-1.594c1.162-0.484,2.334-0.972,3.518-1.462
		c0.591-0.247,1.186-0.494,1.782-0.742c0.608-0.222,1.218-0.443,1.83-0.667c1.227-0.442,2.464-0.889,3.71-1.339
		c1.254-0.428,2.538-0.798,3.822-1.204c2.557-0.849,5.218-1.48,7.895-2.197c10.761-2.659,22.406-4.229,34.484-4.664
		c12.081-0.345,24.595,0.352,37.146,2.208c12.543,1.894,25.125,4.857,37.395,8.8l4.561,1.583c1.512,0.533,3.027,1.03,4.531,1.636
		c3.008,1.17,6.037,2.288,8.969,3.587c1.476,0.631,2.948,1.263,4.42,1.894c1.451,0.677,2.9,1.353,4.348,2.028l2.169,1.012
		l2.134,1.076c1.418,0.722,2.834,1.442,4.247,2.161c11.226,5.912,21.737,12.739,31.284,20.151
		c9.489,7.484,17.965,15.621,25.078,24.124c1.736,2.159,3.512,4.24,5.074,6.435c0.797,1.087,1.613,2.144,2.373,3.229
		c0.741,1.101,1.475,2.19,2.204,3.271c0.362,0.542,0.724,1.081,1.083,1.617c0.336,0.554,0.669,1.105,1.001,1.652
		c0.665,1.096,1.323,2.183,1.975,3.257c0.618,1.096,1.198,2.202,1.788,3.285c0.58,1.09,1.193,2.147,1.687,3.254
		c4.286,8.678,7.04,17.193,8.476,24.915c1.46,7.726,1.592,14.629,1.127,20.231c-0.055,0.7-0.07,1.386-0.156,2.045
		c-0.092,0.658-0.181,1.298-0.268,1.919c-0.189,1.237-0.31,2.407-0.533,3.475c-0.234,1.066-0.453,2.052-0.653,2.955
		c-0.209,0.899-0.351,1.729-0.595,2.442c-0.869,2.877-1.333,4.41-1.333,4.41s0.415-1.545,1.194-4.445
		c0.223-0.718,0.338-1.551,0.518-2.454c0.172-0.906,0.357-1.894,0.56-2.962c0.19-1.069,0.268-2.238,0.425-3.472
		c0.072-0.619,0.146-1.257,0.223-1.913c0.07-0.656,0.068-1.339,0.107-2.035c0.332-5.569,0.042-12.405-1.579-20.007
		c-1.604-7.596-4.518-15.924-8.837-24.438c-0.502-1.084-1.123-2.12-1.711-3.188c-0.598-1.062-1.184-2.143-1.809-3.215
		c-0.66-1.054-1.324-2.116-1.996-3.188c-0.334-0.535-0.672-1.074-1.01-1.615c-0.363-0.525-0.727-1.053-1.094-1.581
		c-0.732-1.059-1.473-2.124-2.219-3.198c-0.766-1.063-1.588-2.095-2.389-3.156c-1.571-2.144-3.355-4.175-5.099-6.28
		c-0.862-1.062-1.833-2.043-2.754-3.079c-0.947-1.014-1.845-2.082-2.847-3.067c-1.984-1.987-3.939-4.052-6.074-5.976
		c-4.155-3.971-8.676-7.727-13.345-11.445c-9.468-7.277-19.89-13.98-31.019-19.773c-1.4-0.705-2.805-1.411-4.211-2.117l-2.114-1.056
		l-2.149-0.99c-1.435-0.66-2.871-1.323-4.309-1.985c-1.459-0.616-2.919-1.233-4.38-1.852c-2.912-1.276-5.892-2.355-8.854-3.494
		c-2.955-1.13-6.063-2.107-9.037-3.16c-12.116-3.954-24.546-6.943-36.942-8.873c-12.402-1.895-24.771-2.639-36.709-2.355
		c-11.93,0.424-23.447,1.763-34.109,4.244c-2.651,0.672-5.29,1.256-7.825,2.06c-1.272,0.383-2.546,0.731-3.79,1.136
		c-1.236,0.427-2.463,0.851-3.679,1.271c-0.608,0.212-1.214,0.422-1.817,0.633c-0.592,0.235-1.182,0.472-1.77,0.707
		c-1.174,0.469-2.338,0.934-3.492,1.395c-1.137,0.496-2.249,1.023-3.359,1.526c-1.104,0.514-2.217,0.983-3.262,1.562
		c-8.514,4.322-15.783,9.32-21.563,14.507c-5.796,5.178-10.066,10.524-13.086,15.215c-0.38,0.586-0.784,1.135-1.116,1.707
		c-0.327,0.575-0.643,1.133-0.95,1.674c-0.603,1.089-1.229,2.079-1.707,3.054c-0.467,0.979-0.9,1.887-1.296,2.718
		c-0.387,0.835-0.787,1.575-1.031,2.288C28.048,65.325,27.469,66.819,27.469,66.819z"/>
	
		<linearGradient id="SVGID_2_" gradientUnits="userSpaceOnUse" x1="176.1885" y1="-461.3657" x2="150.6958" y2="-674.9766" gradientTransform="matrix(-0.8667 0.5972 -0.594 -0.81 -74.6192 -463.7903)">
		<stop  offset="0" style="stop-color:#FFD388"/>
		<stop  offset="0.1649" style="stop-color:#FECD7E"/>
		<stop  offset="0.4699" style="stop-color:#FAC061"/>
		<stop  offset="0.8786" style="stop-color:#F5AA2E"/>
		<stop  offset="1" style="stop-color:#F3A41E"/>
	</linearGradient>
	<path fill="url(#SVGID_2_)" d="M7.951,197.529C-8.969,149.264,48.276,85.261,135.81,54.576S308.02,38.147,324.939,86.412
		c16.918,48.266-40.326,112.269-127.859,142.952C109.545,260.047,24.87,245.793,7.951,197.529z"/>
	<path fill="#FCC267" d="M7.951,197.529c0,0-0.493-1.558-1.417-4.476c-0.659-2.978-1.791-7.397-1.767-13.156
		c-0.073-5.73,0.752-12.739,3.104-20.401c2.325-7.669,6.263-15.897,11.625-24.16c5.324-8.3,12.205-16.53,20.175-24.508
		c7.961-7.997,17.149-15.624,27.225-22.679c5.011-3.568,10.303-6.904,15.703-10.203c5.462-3.193,11.042-6.346,16.816-9.232
		c11.516-5.834,23.6-10.997,35.96-15.381c3.139-1.036,6.19-2.093,9.326-3.069l4.711-1.421l2.353-0.711l2.365-0.643
		c3.152-0.856,6.291-1.732,9.46-2.459c1.581-0.378,3.158-0.756,4.734-1.134c1.584-0.335,3.166-0.67,4.744-1.004
		c6.313-1.351,12.641-2.37,18.901-3.286c6.278-0.796,12.493-1.494,18.636-1.836c12.275-0.778,24.214-0.563,35.426,0.717
		c11.207,1.255,21.722,3.391,31.063,6.548c9.347,3.108,17.563,7.076,24.165,11.616c6.62,4.519,11.641,9.479,15.161,14.001
		c3.615,4.485,5.488,8.642,6.832,11.377c1.102,2.858,1.689,4.383,1.689,4.383s-0.633-1.504-1.82-4.323
		c-0.357-0.674-0.756-1.429-1.195-2.259c-0.221-0.414-0.451-0.848-0.691-1.3c-0.121-0.226-0.243-0.455-0.367-0.69
		c-0.146-0.224-0.295-0.45-0.446-0.683c-0.604-0.925-1.254-1.921-1.948-2.98c-0.727-1.038-1.592-2.074-2.453-3.203
		c-3.592-4.403-8.667-9.192-15.305-13.504c-0.813-0.563-1.705-1.032-2.572-1.566c-0.882-0.513-1.758-1.067-2.68-1.566
		c-0.936-0.479-1.883-0.965-2.845-1.458c-0.957-0.5-1.931-0.999-2.956-1.425c-1.014-0.45-2.04-0.905-3.079-1.366
		c-1.027-0.487-2.127-0.841-3.207-1.276c-1.091-0.406-2.179-0.86-3.306-1.242c-1.133-0.37-2.277-0.744-3.436-1.121
		c-9.268-2.993-19.695-4.959-30.801-6.047c-11.111-1.113-22.926-1.129-35.08-0.348c-6.083,0.365-12.24,1.087-18.459,1.902
		c-6.201,0.938-12.467,1.978-18.719,3.346c-1.564,0.338-3.132,0.676-4.701,1.016c-1.561,0.383-3.123,0.764-4.688,1.146
		c-3.139,0.733-6.248,1.617-9.369,2.481l-2.342,0.648l-2.32,0.711l-4.644,1.425c-3.089,0.973-6.202,2.078-9.265,3.09
		c-12.275,4.291-24.281,9.355-35.726,15.088c-5.738,2.836-11.283,5.935-16.711,9.075c-5.366,3.245-10.626,6.526-15.605,10.039
		C58.22,97,48.997,104.384,41.014,112.193c-7.995,7.784-14.914,15.832-20.284,23.956c-5.381,8.104-9.456,16.127-11.929,23.645
		c-2.492,7.513-3.466,14.422-3.522,20.104c0.032,1.421,0.003,2.77,0.083,4.033c0.121,1.263,0.235,2.445,0.341,3.547
		c0.026,0.275,0.052,0.546,0.078,0.811c0.048,0.262,0.096,0.518,0.144,0.769c0.093,0.503,0.185,0.985,0.271,1.445
		c0.175,0.922,0.333,1.761,0.476,2.511C7.505,195.958,7.951,197.529,7.951,197.529z"/>
	<linearGradient id="SVGID_3_" gradientUnits="userSpaceOnUse" x1="178.4902" y1="132.1895" x2="75.0808" y2="38.0197">
		<stop  offset="0" style="stop-color:#FFFFFF"/>
		<stop  offset="0.048" style="stop-color:#FAFAFA"/>
		<stop  offset="0.6723" style="stop-color:#D9DADC"/>
		<stop  offset="1" style="stop-color:#CDCFD0"/>
	</linearGradient>
	<ellipse fill="url(#SVGID_3_)" cx="166.445" cy="121.221" rx="148.561" ry="87.467"/>
	<path fill="#FFFFFF" d="M17.885,121.221c0,0,0.038-1.473,0.11-4.233c0.12-1.374,0.304-3.075,0.573-5.065
		c0.196-0.985,0.406-2.043,0.63-3.173c0.058-0.283,0.116-0.569,0.175-0.86c0.082-0.286,0.164-0.575,0.248-0.87
		c0.171-0.587,0.346-1.191,0.525-1.813c1.476-4.955,4.008-10.793,8.012-16.816c1.962-3.038,4.377-6.041,7.034-9.105
		c0.68-0.753,1.399-1.485,2.117-2.238c0.732-0.736,1.423-1.536,2.221-2.241c1.568-1.439,3.113-2.982,4.848-4.375
		c6.778-5.762,14.813-11.188,23.854-15.883c1.131-0.586,2.27-1.175,3.417-1.769c1.166-0.551,2.34-1.104,3.522-1.663
		c2.345-1.158,4.812-2.116,7.26-3.19c2.482-0.991,4.999-1.984,7.572-2.892c2.585-0.869,5.175-1.813,7.844-2.583
		c10.616-3.258,21.84-5.811,33.382-7.44c11.538-1.662,23.376-2.521,35.217-2.572c2.987,0.061,5.893,0.065,8.859,0.186
		c2.958,0.163,5.929,0.225,8.863,0.493c1.469,0.114,2.938,0.229,4.405,0.342c1.466,0.12,2.925,0.304,4.384,0.453
		c1.458,0.168,2.918,0.29,4.367,0.494c1.448,0.2,2.895,0.401,4.339,0.601c11.542,1.631,22.765,4.185,33.382,7.443
		c5.315,1.61,10.461,3.463,15.416,5.47c2.449,1.074,4.916,2.034,7.261,3.193c1.182,0.557,2.355,1.111,3.522,1.662
		c1.146,0.594,2.285,1.184,3.416,1.77c9.043,4.695,17.076,10.119,23.854,15.883c1.735,1.393,3.279,2.937,4.848,4.374
		c0.798,0.707,1.487,1.507,2.221,2.244c0.718,0.752,1.438,1.483,2.118,2.235c2.656,3.064,5.072,6.069,7.034,9.107
		c4.003,6.023,6.534,11.861,8.009,16.816c0.181,0.621,0.355,1.228,0.525,1.814c0.084,0.294,0.166,0.584,0.25,0.869
		c0.058,0.292,0.116,0.578,0.173,0.861c0.225,1.13,0.437,2.188,0.632,3.173c0.269,1.988,0.451,3.688,0.571,5.063
		c0.072,2.763,0.11,4.235,0.11,4.235s-0.088-1.469-0.252-4.226c-0.167-1.366-0.406-3.052-0.74-5.018
		c-0.464-1.943-0.906-4.194-1.758-6.621c-1.586-4.871-4.234-10.574-8.333-16.415c-4.071-5.854-9.571-11.817-16.361-17.377
		c-6.771-5.578-14.78-10.813-23.782-15.311c-8.979-4.54-18.887-8.454-29.402-11.618c-10.513-3.167-21.629-5.636-33.062-7.193
		c-1.43-0.19-2.862-0.381-4.297-0.572c-1.435-0.195-2.881-0.308-4.325-0.468c-1.445-0.14-2.889-0.314-4.341-0.426
		c-1.452-0.104-2.907-0.212-4.361-0.315c-2.913-0.253-5.826-0.297-8.743-0.442c-2.913-0.108-5.902-0.089-8.803-0.147
		c-11.721-0.008-23.442,0.783-34.87,2.37c-11.433,1.556-22.549,4.025-33.063,7.193C87.996,47.8,78.088,51.707,69.109,56.249
		c-9.002,4.499-17.01,9.733-23.782,15.313c-1.735,1.348-3.276,2.845-4.847,4.239c-0.798,0.685-1.488,1.461-2.222,2.178
		c-0.715,0.732-1.451,1.431-2.137,2.157c-2.691,2.953-5.148,5.854-7.158,8.803c-4.098,5.842-6.746,11.545-8.331,16.417
		c-0.853,2.427-1.294,4.678-1.758,6.621c-0.333,1.964-0.572,3.648-0.739,5.017C17.972,119.749,17.885,121.221,17.885,121.221z"/>
	<g>
		<path fill="#D95C26" d="M127.476,123.42v-21.797h16.162v3.688h-11.761v4.832h10.943v3.673h-10.943v5.932h12.177v3.673H127.476z"/>
		<path fill="#D95C26" d="M167.441,123.42h-4.788l-1.903-4.951h-8.713l-1.799,4.951h-4.668l8.49-21.797h4.654L167.441,123.42z
			 M159.338,114.796l-3.003-8.088l-2.944,8.088H159.338z"/>
		<path fill="#D95C26" d="M168.66,116.328l4.283-0.417c0.258,1.438,0.78,2.493,1.568,3.167c0.787,0.675,1.852,1.012,3.189,1.012
			c1.417,0,2.484-0.3,3.203-0.9c0.719-0.6,1.078-1.301,1.078-2.104c0-0.516-0.15-0.954-0.453-1.315
			c-0.303-0.362-0.83-0.677-1.584-0.944c-0.516-0.179-1.689-0.496-3.523-0.952c-2.359-0.584-4.014-1.303-4.966-2.155
			c-1.339-1.199-2.007-2.661-2.007-4.387c0-1.109,0.314-2.148,0.943-3.114c0.63-0.967,1.537-1.703,2.721-2.208
			c1.186-0.506,2.615-0.759,4.29-0.759c2.735,0,4.795,0.601,6.178,1.8s2.108,2.8,2.179,4.802l-4.401,0.193
			c-0.188-1.12-0.593-1.925-1.212-2.416c-0.619-0.49-1.549-0.736-2.787-0.736c-1.279,0-2.281,0.264-3.004,0.788
			c-0.467,0.338-0.699,0.788-0.699,1.354c0,0.516,0.219,0.957,0.654,1.323c0.555,0.466,1.903,0.951,4.045,1.457
			c2.141,0.506,3.725,1.028,4.75,1.568c1.025,0.541,1.828,1.279,2.408,2.216s0.87,2.094,0.87,3.472c0,1.249-0.347,2.419-1.04,3.509
			c-0.695,1.091-1.676,1.9-2.945,2.431c-1.268,0.53-2.85,0.796-4.742,0.796c-2.756,0-4.872-0.637-6.35-1.911
			C169.83,120.622,168.948,118.767,168.66,116.328z"/>
		<path fill="#D95C26" d="M195.811,123.42v-9.174l-7.984-12.623h5.159l5.13,8.624l5.025-8.624h5.07l-8.015,12.653v9.144H195.811z"/>
		<path fill="#D95C26" d="M142.426,154.92l4.044-0.446c0.099,0.823,0.357,1.433,0.773,1.829c0.416,0.396,0.966,0.595,1.65,0.595
			c0.862,0,1.596-0.396,2.2-1.189s0.991-2.438,1.16-4.937c-1.051,1.219-2.364,1.829-3.94,1.829c-1.715,0-3.194-0.662-4.438-1.985
			c-1.244-1.323-1.866-3.046-1.866-5.167c0-2.21,0.657-3.992,1.97-5.345c1.313-1.354,2.986-2.029,5.018-2.029
			c2.21,0,4.024,0.854,5.442,2.564c1.417,1.71,2.126,4.522,2.126,8.438c0,3.985-0.738,6.859-2.215,8.624s-3.4,2.646-5.769,2.646
			c-1.705,0-3.083-0.454-4.133-1.36C143.397,158.079,142.723,156.724,142.426,154.92z M151.882,145.79
			c0-1.348-0.31-2.394-0.929-3.137s-1.336-1.115-2.148-1.115c-0.773,0-1.415,0.305-1.925,0.914c-0.511,0.61-0.766,1.608-0.766,2.996
			c0,1.408,0.277,2.441,0.833,3.101c0.555,0.659,1.249,0.988,2.082,0.988c0.803,0,1.479-0.317,2.029-0.951
			C151.607,147.951,151.882,147.02,151.882,145.79z"/>
		<path fill="#D95C26" d="M158.156,159.96l5.695-8.133l-5.457-7.657h5.1l2.795,4.342l2.944-4.342h4.906l-5.353,7.479l5.844,8.312
			h-5.13l-3.211-4.892l-3.241,4.892H158.156z"/>
		<path fill="#D95C26" d="M176.296,154.92l4.044-0.446c0.1,0.823,0.357,1.433,0.773,1.829s0.967,0.595,1.65,0.595
			c0.862,0,1.596-0.396,2.2-1.189s0.991-2.438,1.16-4.937c-1.051,1.219-2.364,1.829-3.94,1.829c-1.715,0-3.194-0.662-4.438-1.985
			c-1.244-1.323-1.867-3.046-1.867-5.167c0-2.21,0.657-3.992,1.971-5.345c1.313-1.354,2.986-2.029,5.018-2.029
			c2.211,0,4.024,0.854,5.442,2.564c1.417,1.71,2.126,4.522,2.126,8.438c0,3.985-0.738,6.859-2.215,8.624
			c-1.478,1.765-3.4,2.646-5.77,2.646c-1.705,0-3.082-0.454-4.133-1.36C177.268,158.079,176.594,156.724,176.296,154.92z
			 M185.752,145.79c0-1.348-0.31-2.394-0.93-3.137c-0.619-0.743-1.336-1.115-2.148-1.115c-0.772,0-1.414,0.305-1.925,0.914
			c-0.511,0.61-0.766,1.608-0.766,2.996c0,1.408,0.277,2.441,0.833,3.101c0.555,0.659,1.248,0.988,2.081,0.988
			c0.803,0,1.479-0.317,2.029-0.951C185.477,147.951,185.752,147.02,185.752,145.79z"/>
	</g>
</g>
</svg>
