<?xml version="1.0" encoding="utf-8"?>
<!-- Generator: Adobe Illustrator 16.0.0, SVG Export Plug-In . SVG Version: 6.00 Build 0)  -->
<!DOCTYPE svg PUBLIC "-//W3C//DTD SVG 1.1//EN" "http://www.w3.org/Graphics/SVG/1.1/DTD/svg11.dtd">
<svg version="1.1" id="Layer_1" xmlns="http://www.w3.org/2000/svg" xmlns:xlink="http://www.w3.org/1999/xlink" x="0px" y="0px"
	 width="331.5px" height="250px" viewBox="0 0 331.5 250" enable-background="new 0 0 331.5 250" xml:space="preserve">
<g>
	
		<linearGradient id="SVGID_1_" gradientUnits="userSpaceOnUse" x1="120.2314" y1="-333.3408" x2="368.127" y2="-427.4005" gradientTransform="matrix(0.988 -0.1213 0.161 1.0427 -43.524 587.6386)">
		<stop  offset="0" style="stop-color:#EFA982"/>
		<stop  offset="0.1536" style="stop-color:#ECA178"/>
		<stop  offset="0.4378" style="stop-color:#E68D5F"/>
		<stop  offset="0.8184" style="stop-color:#DC6E36"/>
		<stop  offset="1" style="stop-color:#D85D27"/>
	</linearGradient>
	<path fill="url(#SVGID_1_)" d="M324.566,80.111c19.109,47.445-33.568,113.366-117.662,147.235
		c-84.091,33.872-167.752,22.867-186.864-24.579C0.93,155.321,53.609,89.401,137.701,55.532
		C221.793,21.66,305.455,32.666,324.566,80.111z"/>
	<path fill="#F1A77E" d="M20.041,202.768c0,0-0.557-1.507-1.6-4.334c-0.224-0.718-0.424-1.537-0.673-2.431
		c-0.121-0.448-0.248-0.917-0.381-1.405c-0.135-0.489-0.278-0.997-0.357-1.54c-0.191-1.078-0.397-2.238-0.618-3.474
		c-0.209-1.24-0.256-2.578-0.401-3.981c-0.398-5.626-0.012-12.556,1.825-20.226c1.775-7.684,5.137-16.014,9.909-24.45
		c1.141-2.143,2.505-4.209,3.83-6.354c0.646-1.085,1.409-2.104,2.127-3.169c0.735-1.053,1.448-2.137,2.222-3.188
		c0.787-1.043,1.58-2.094,2.38-3.154c0.401-0.529,0.803-1.062,1.208-1.595c0.424-0.518,0.85-1.036,1.277-1.559
		c0.856-1.042,1.719-2.093,2.588-3.149c0.887-1.042,1.817-2.059,2.735-3.102c3.665-4.172,7.71-8.196,11.93-12.218
		c4.288-3.945,8.779-7.862,13.569-11.564c4.731-3.777,9.764-7.325,14.904-10.841c2.613-1.692,5.225-3.427,7.904-5.076
		c2.705-1.612,5.375-3.314,8.16-4.841c11.046-6.298,22.659-11.931,34.648-16.813c3.004-1.144,5.978-2.332,9.012-3.425l4.57-1.605
		l2.283-0.799l2.297-0.733c3.061-0.982,6.113-1.972,9.198-2.821c1.539-0.437,3.068-0.896,4.607-1.312
		c1.543-0.396,3.084-0.791,4.623-1.187c3.066-0.83,6.172-1.455,9.236-2.168c3.078-0.669,6.16-1.228,9.219-1.818
		c6.141-1.029,12.229-1.961,18.258-2.518c1.506-0.141,3.004-0.319,4.5-0.427c1.498-0.1,2.986-0.198,4.471-0.298
		c2.965-0.244,5.914-0.236,8.826-0.346c5.826-0.025,11.535,0.072,17.068,0.539c1.383,0.115,2.76,0.203,4.121,0.338
		c1.359,0.161,2.709,0.321,4.047,0.479c0.672,0.079,1.338,0.157,2.004,0.237c0.66,0.104,1.32,0.208,1.975,0.313
		c1.311,0.209,2.611,0.417,3.902,0.624c1.287,0.223,2.551,0.51,3.811,0.758c1.256,0.271,2.512,0.477,3.729,0.812
		c2.443,0.627,4.859,1.171,7.164,1.926c9.289,2.774,17.488,6.447,24.094,10.758c6.639,4.254,11.721,8.983,15.332,13.314
		c0.867,1.113,1.764,2.109,2.471,3.148c0.697,1.044,1.352,2.022,1.963,2.934c0.318,0.445,0.566,0.91,0.809,1.357
		c0.242,0.442,0.475,0.869,0.697,1.275c0.441,0.816,0.863,1.546,1.199,2.218c1.209,2.762,1.854,4.234,1.854,4.234
		s-0.688-1.449-1.979-4.168c-0.357-0.662-0.803-1.376-1.266-2.175c-0.234-0.397-0.48-0.814-0.736-1.248
		c-0.252-0.436-0.512-0.891-0.844-1.323c-0.633-0.886-1.311-1.839-2.037-2.854c-0.725-1.014-1.637-1.981-2.521-3.065
		c-3.678-4.21-8.811-8.767-15.463-12.815c-6.621-4.095-14.787-7.524-23.986-10.166c-2.285-0.713-4.682-1.215-7.104-1.802
		c-1.205-0.314-2.453-0.498-3.695-0.749c-1.248-0.229-2.502-0.494-3.777-0.696c-1.277-0.186-2.566-0.373-3.867-0.562
		c-0.648-0.095-1.301-0.188-1.955-0.282c-0.658-0.068-1.318-0.138-1.984-0.206c-1.324-0.138-2.662-0.277-4.008-0.417
		c-1.348-0.115-2.711-0.183-4.082-0.278c-5.477-0.385-11.125-0.4-16.889-0.295c-5.762,0.236-11.652,0.496-17.609,1.184
		c-5.967,0.58-11.99,1.53-18.07,2.578c-3.025,0.6-6.078,1.167-9.125,1.846c-3.035,0.719-6.105,1.352-9.145,2.19
		c-1.52,0.398-3.047,0.796-4.576,1.196c-1.523,0.42-3.037,0.882-4.559,1.322c-3.055,0.854-6.075,1.85-9.103,2.839l-2.273,0.735
		l-2.25,0.801l-4.503,1.604c-3,1.092-5.985,2.312-8.984,3.455c-11.834,4.758-23.423,10.306-34.382,16.493
		c-2.77,1.498-5.422,3.172-8.108,4.759c-2.664,1.622-5.259,3.327-7.855,4.992c-5.108,3.46-10.11,6.951-14.813,10.668
		c-4.769,3.636-9.199,7.525-13.516,11.35c-4.228,3.92-8.289,7.846-11.971,11.92c-0.921,1.018-1.857,2.012-2.749,3.029
		c-0.873,1.034-1.74,2.062-2.601,3.079c-0.432,0.51-0.859,1.018-1.287,1.522c-0.406,0.522-0.812,1.043-1.214,1.56
		c-0.806,1.038-1.604,2.066-2.397,3.085c-0.779,1.03-1.497,2.091-2.238,3.12c-0.724,1.042-1.495,2.04-2.146,3.103
		c-1.338,2.101-2.717,4.124-3.871,6.222c-4.8,8.28-8.311,16.412-10.245,23.954c-1.987,7.53-2.528,14.372-2.261,19.956
		c0.112,1.395,0.126,2.725,0.306,3.958c0.182,1.235,0.353,2.392,0.511,3.468c0.062,0.544,0.188,1.051,0.309,1.54
		c0.116,0.489,0.228,0.957,0.334,1.407c0.22,0.896,0.396,1.719,0.596,2.443C19.531,201.244,20.041,202.768,20.041,202.768z"/>
	
		<linearGradient id="SVGID_2_" gradientUnits="userSpaceOnUse" x1="321.0645" y1="-888.271" x2="295.5718" y2="-1101.8818" gradientTransform="matrix(-0.9912 -0.1326 0.1326 -0.9912 596.5377 -895.6027)">
		<stop  offset="0" style="stop-color:#FFD388"/>
		<stop  offset="0.1649" style="stop-color:#FECD7E"/>
		<stop  offset="0.4699" style="stop-color:#FAC061"/>
		<stop  offset="0.8786" style="stop-color:#F5AA2E"/>
		<stop  offset="1" style="stop-color:#F3A41E"/>
	</linearGradient>
	<path fill="url(#SVGID_2_)" d="M12.571,51.286C33.121,4.451,114.937-4.929,195.313,30.339
		c80.375,35.267,128.871,101.824,108.322,148.66c-20.553,46.833-102.369,56.213-182.744,20.946
		C40.516,164.678-7.98,98.122,12.571,51.286z"/>
	<path fill="#F9CB8F" d="M12.571,51.286c0,0,0.67-1.422,1.927-4.084c0.332-0.656,0.774-1.354,1.222-2.142
		c0.472-0.775,0.927-1.661,1.526-2.548c0.616-0.876,1.278-1.817,1.985-2.821c0.178-0.25,0.359-0.503,0.543-0.762
		c0.205-0.241,0.412-0.487,0.621-0.738c0.42-0.499,0.852-1.014,1.297-1.54c3.587-4.185,8.594-8.762,15.116-12.873
		c1.587-1.099,3.374-1.979,5.148-3.001c0.882-0.524,1.836-0.936,2.778-1.401c0.95-0.455,1.913-0.916,2.887-1.386
		c3.979-1.681,8.231-3.317,12.799-4.594c1.142-0.321,2.287-0.676,3.458-0.979c1.178-0.277,2.365-0.558,3.565-0.841
		c0.601-0.141,1.204-0.283,1.81-0.427c0.611-0.116,1.225-0.232,1.842-0.349c1.234-0.232,2.479-0.466,3.734-0.703
		c1.259-0.218,2.537-0.374,3.821-0.567c1.287-0.171,2.577-0.4,3.893-0.508c2.626-0.26,5.286-0.576,8-0.697
		c1.354-0.074,2.72-0.182,4.092-0.233c1.377-0.032,2.76-0.063,4.152-0.097c0.695-0.015,1.395-0.029,2.095-0.046
		c0.701,0.01,1.402,0.019,2.106,0.028c1.409,0.018,2.827,0.037,4.253,0.057c5.693,0.208,11.509,0.607,17.384,1.345
		c11.754,1.407,23.791,3.769,35.751,7.142c11.975,3.348,23.868,7.58,35.481,12.619c2.855,1.322,5.719,2.584,8.555,3.966
		c2.818,1.425,5.693,2.753,8.443,4.269c1.387,0.74,2.771,1.479,4.156,2.217c1.381,0.74,2.729,1.546,4.088,2.314
		c1.354,0.784,2.727,1.532,4.057,2.346c1.328,0.813,2.656,1.627,3.98,2.438c10.58,6.518,20.471,13.775,29.463,21.475
		c4.518,3.826,8.756,7.827,12.764,11.88c0.979,1.034,1.951,2.065,2.92,3.09c0.484,0.513,0.967,1.022,1.447,1.531
		c0.465,0.525,0.924,1.051,1.385,1.574c0.918,1.046,1.832,2.086,2.74,3.12c0.893,1.046,1.736,2.121,2.598,3.17
		c1.75,2.078,3.316,4.252,4.904,6.358c0.811,1.04,1.516,2.146,2.262,3.21c0.729,1.075,1.48,2.122,2.17,3.196
		c0.676,1.084,1.348,2.158,2.014,3.224c0.33,0.533,0.66,1.063,0.99,1.592c0.303,0.543,0.607,1.082,0.91,1.621
		c0.604,1.074,1.203,2.139,1.795,3.192c0.568,1.068,1.086,2.15,1.619,3.208c2.154,4.226,3.828,8.464,5.287,12.529
		c0.316,1.034,0.627,2.055,0.936,3.063c0.295,1.01,0.639,1.99,0.85,2.994c0.449,1.998,1.01,3.909,1.277,5.821
		c1.391,7.584,1.412,14.367,0.762,19.842c-0.088,0.684-0.172,1.349-0.258,1.996c-0.041,0.323-0.082,0.643-0.121,0.956
		c-0.066,0.31-0.129,0.616-0.193,0.916c-0.26,1.2-0.504,2.324-0.732,3.371c-0.246,1.042-0.59,1.976-0.84,2.845
		c-0.277,0.864-0.49,1.66-0.75,2.351c-1.109,2.729-1.699,4.186-1.699,4.186s0.543-1.473,1.564-4.232
		c0.236-0.695,0.424-1.498,0.672-2.366c0.225-0.874,0.533-1.812,0.746-2.854c0.195-1.046,0.402-2.171,0.625-3.371
		c0.057-0.299,0.111-0.604,0.17-0.912c0.031-0.313,0.064-0.63,0.1-0.952c0.066-0.644,0.135-1.306,0.207-1.986
		c0.516-5.441,0.332-12.146-1.215-19.599c-0.307-1.88-0.908-3.757-1.396-5.715c-0.23-0.983-0.594-1.945-0.91-2.935
		c-0.326-0.985-0.656-1.985-0.99-2.996c-0.393-0.993-0.789-1.998-1.189-3.016c-0.402-1.016-0.777-2.058-1.266-3.067
		c-0.934-2.035-1.834-4.143-2.959-6.199c-0.543-1.036-1.068-2.097-1.645-3.142c-0.602-1.032-1.207-2.075-1.818-3.127
		c-0.305-0.526-0.613-1.056-0.922-1.587c-0.332-0.518-0.666-1.037-1-1.559c-0.674-1.043-1.35-2.095-2.033-3.156
		c-0.699-1.052-1.459-2.075-2.191-3.127c-0.752-1.04-1.463-2.122-2.279-3.138c-1.602-2.06-3.178-4.185-4.938-6.214
		c-0.867-1.023-1.717-2.074-2.611-3.097c-0.914-1.009-1.83-2.022-2.756-3.044c-0.461-0.512-0.924-1.023-1.389-1.536l-1.455-1.495
		c-0.973-0.997-1.949-2.002-2.932-3.012c-0.998-0.995-2.035-1.96-3.059-2.949c-1.031-0.983-2.035-2.005-3.119-2.952
		c-2.141-1.922-4.264-3.903-6.529-5.761c-8.938-7.574-18.764-14.717-29.273-21.12c-1.316-0.799-2.635-1.597-3.955-2.397
		c-1.32-0.798-2.684-1.533-4.029-2.304c-1.352-0.753-2.688-1.545-4.059-2.272c-1.375-0.723-2.75-1.449-4.127-2.175
		c-2.738-1.493-5.566-2.781-8.355-4.175c-2.809-1.356-5.705-2.608-8.555-3.924c-11.41-5.015-23.223-9.287-35.051-12.652
		c-11.829-3.396-23.738-5.79-35.363-7.238c-2.901-0.409-5.798-0.632-8.662-0.906c-1.431-0.156-2.861-0.199-4.282-0.297
		c-1.421-0.085-2.834-0.194-4.241-0.256c-1.409-0.039-2.81-0.078-4.204-0.116c-0.695-0.02-1.391-0.04-2.082-0.059
		c-0.694,0.005-1.384,0.011-2.072,0.018c-1.377,0.012-2.746,0.023-4.105,0.035c-1.36,0.031-2.708,0.117-4.049,0.174
		c-2.684,0.079-5.314,0.357-7.915,0.573c-1.301,0.088-2.579,0.297-3.853,0.448c-1.272,0.172-2.539,0.308-3.785,0.506
		c-1.242,0.216-2.477,0.43-3.698,0.642c-0.61,0.105-1.22,0.213-1.824,0.317c-0.601,0.133-1.197,0.265-1.792,0.397
		c-1.188,0.261-2.367,0.521-3.533,0.779c-1.16,0.283-2.295,0.615-3.426,0.916c-2.273,0.566-4.435,1.33-6.564,2.021
		c-1.075,0.324-2.095,0.755-3.116,1.147c-1.02,0.393-2.027,0.781-3.022,1.165c-0.972,0.438-1.931,0.872-2.877,1.3
		c-0.941,0.438-1.896,0.821-2.775,1.318c-1.771,0.966-3.561,1.794-5.149,2.842c-6.533,3.906-11.592,8.313-15.245,12.377
		c-0.453,0.514-0.893,1.014-1.321,1.5c-0.214,0.242-0.426,0.481-0.633,0.718c-0.188,0.25-0.375,0.497-0.559,0.741
		c-0.731,0.977-1.418,1.891-2.057,2.741c-0.624,0.862-1.102,1.726-1.595,2.481c-0.47,0.771-0.933,1.45-1.285,2.097
		C13.285,49.887,12.571,51.286,12.571,51.286z"/>
	<linearGradient id="SVGID_3_" gradientUnits="userSpaceOnUse" x1="163.8325" y1="126.1094" x2="60.4239" y2="31.9403">
		<stop  offset="0" style="stop-color:#FFFFFF"/>
		<stop  offset="0.048" style="stop-color:#FAFAFA"/>
		<stop  offset="0.6723" style="stop-color:#D9DADC"/>
		<stop  offset="1" style="stop-color:#CDCFD0"/>
	</linearGradient>
	<ellipse fill="url(#SVGID_3_)" cx="151.788" cy="115.142" rx="148.56" ry="87.466"/>
	<path fill="#FFFFFF" d="M3.228,115.142c0,0,0.037-1.471,0.109-4.232c0.12-1.373,0.305-3.075,0.573-5.065
		c0.196-0.984,0.406-2.044,0.631-3.173c0.058-0.283,0.115-0.569,0.175-0.861c0.082-0.285,0.164-0.574,0.248-0.869
		c0.171-0.588,0.347-1.193,0.525-1.814c1.476-4.954,4.009-10.792,8.012-16.814c1.962-3.038,4.377-6.042,7.034-9.106
		c0.68-0.753,1.397-1.485,2.116-2.237c0.732-0.736,1.424-1.538,2.222-2.242c1.567-1.439,3.112-2.982,4.847-4.375
		c6.779-5.763,14.813-11.188,23.854-15.882c1.132-0.585,2.27-1.176,3.417-1.769c1.165-0.551,2.339-1.105,3.521-1.664
		c2.346-1.156,4.812-2.116,7.26-3.19c2.483-0.989,4.999-1.983,7.571-2.891c2.586-0.868,5.175-1.813,7.844-2.581
		c10.617-3.261,21.841-5.813,33.383-7.444c11.539-1.66,23.377-2.52,35.218-2.571c2.987,0.062,5.893,0.065,8.859,0.187
		c2.958,0.162,5.928,0.224,8.862,0.493c1.471,0.113,2.939,0.227,4.406,0.341c1.467,0.121,2.924,0.305,4.383,0.455
		c1.459,0.166,2.92,0.29,4.369,0.494c1.447,0.2,2.895,0.399,4.338,0.601c11.543,1.631,22.764,4.183,33.383,7.44
		c5.316,1.613,10.461,3.464,15.416,5.471c2.449,1.075,4.914,2.034,7.26,3.193c1.182,0.558,2.355,1.112,3.523,1.661
		c1.146,0.595,2.285,1.186,3.414,1.771c9.045,4.693,17.078,10.121,23.855,15.883c1.736,1.393,3.279,2.936,4.848,4.375
		c0.797,0.705,1.488,1.505,2.221,2.241c0.719,0.753,1.439,1.484,2.117,2.238c2.658,3.064,5.072,6.067,7.033,9.105
		c4.004,6.025,6.537,11.863,8.01,16.817c0.182,0.621,0.357,1.227,0.525,1.813c0.086,0.296,0.168,0.585,0.25,0.87
		c0.059,0.292,0.117,0.578,0.174,0.861c0.225,1.129,0.436,2.188,0.631,3.172c0.27,1.99,0.451,3.688,0.572,5.063
		c0.072,2.762,0.109,4.235,0.109,4.235s-0.088-1.47-0.252-4.224c-0.166-1.368-0.406-3.055-0.74-5.019
		c-0.463-1.943-0.906-4.194-1.758-6.62c-1.586-4.873-4.234-10.576-8.332-16.417c-4.07-5.854-9.57-11.817-16.361-17.377
		c-6.771-5.579-14.781-10.812-23.781-15.312c-8.98-4.539-18.887-8.45-29.402-11.614c-10.514-3.17-21.631-5.639-33.063-7.194
		c-1.43-0.191-2.863-0.382-4.297-0.574c-1.436-0.195-2.881-0.309-4.324-0.467c-1.445-0.141-2.889-0.314-4.342-0.427
		c-1.453-0.105-2.908-0.21-4.361-0.314c-2.914-0.254-5.826-0.298-8.743-0.443c-2.914-0.108-5.902-0.089-8.803-0.147
		c-11.722-0.007-23.442,0.784-34.87,2.369c-11.433,1.558-22.55,4.026-33.063,7.196c-10.516,3.164-20.424,7.069-29.402,11.612
		c-9.003,4.5-17.011,9.735-23.782,15.313c-1.734,1.348-3.276,2.846-4.847,4.24c-0.798,0.684-1.488,1.462-2.222,2.176
		c-0.715,0.734-1.45,1.432-2.136,2.158c-2.692,2.953-5.149,5.855-7.158,8.803c-4.098,5.843-6.746,11.546-8.33,16.419
		c-0.854,2.425-1.295,4.677-1.759,6.62c-0.334,1.963-0.572,3.647-0.738,5.016C3.315,113.672,3.228,115.142,3.228,115.142z"/>
	<g>
		<path fill="#D95C26" d="M110.037,117.341V95.544h4.4v8.579h8.624v-8.579h4.401v21.797h-4.401v-9.53h-8.624v9.53H110.037z"/>
		<path fill="#D95C26" d="M151.667,117.341h-4.787l-1.903-4.951h-8.713l-1.799,4.951h-4.669l8.49-21.797h4.653L151.667,117.341z
			 M143.564,108.717l-3.003-8.088l-2.944,8.088H143.564z"/>
		<path fill="#D95C26" d="M154.017,117.341V95.544h9.262c2.33,0,4.021,0.195,5.078,0.587c1.055,0.392,1.9,1.088,2.535,2.089
			c0.635,1.002,0.951,2.146,0.951,3.435c0,1.636-0.48,2.986-1.441,4.052c-0.963,1.066-2.4,1.737-4.313,2.015
			c0.951,0.556,1.736,1.165,2.357,1.829c0.619,0.664,1.453,1.844,2.504,3.539l2.662,4.252h-5.264l-3.182-4.743
			c-1.129-1.694-1.902-2.763-2.319-3.204c-0.417-0.44-0.858-0.743-1.324-0.907c-0.466-0.163-1.204-0.245-2.215-0.245h-0.893v9.1
			H154.017z M158.417,104.763h3.257c2.111,0,3.429-0.09,3.955-0.269c0.525-0.178,0.938-0.485,1.234-0.921
			c0.297-0.437,0.445-0.981,0.445-1.636c0-0.733-0.195-1.326-0.586-1.777c-0.393-0.45-0.945-0.735-1.658-0.854
			c-0.357-0.05-1.428-0.074-3.212-0.074h-3.435V104.763z"/>
		<path fill="#D95C26" d="M175.977,95.544h8.045c1.814,0,3.197,0.139,4.148,0.416c1.277,0.377,2.373,1.046,3.285,2.008
			c0.912,0.961,1.605,2.139,2.082,3.531c0.475,1.393,0.713,3.109,0.713,5.151c0,1.794-0.223,3.341-0.668,4.639
			c-0.545,1.586-1.324,2.87-2.334,3.852c-0.764,0.743-1.795,1.323-3.094,1.739c-0.971,0.308-2.27,0.461-3.895,0.461h-8.283V95.544z
			 M180.379,99.231v14.437h3.285c1.229,0,2.117-0.069,2.662-0.208c0.713-0.178,1.305-0.48,1.775-0.906
			c0.471-0.427,0.855-1.128,1.152-2.104c0.299-0.976,0.447-2.307,0.447-3.992c0-1.685-0.148-2.979-0.447-3.881
			c-0.297-0.901-0.713-1.605-1.248-2.111c-0.535-0.505-1.215-0.847-2.037-1.025c-0.615-0.139-1.818-0.208-3.613-0.208H180.379z"/>
		<path fill="#D95C26" d="M110.593,148.097l4.045-0.49c0.128,1.031,0.476,1.819,1.04,2.364c0.565,0.545,1.249,0.817,2.052,0.817
			c0.862,0,1.589-0.327,2.179-0.981s0.885-1.536,0.885-2.646c0-1.051-0.282-1.883-0.848-2.498c-0.565-0.614-1.254-0.922-2.066-0.922
			c-0.535,0-1.175,0.104-1.918,0.313l0.461-3.404c1.13,0.029,1.992-0.216,2.587-0.736s0.892-1.212,0.892-2.074
			c0-0.733-0.218-1.318-0.654-1.754c-0.436-0.437-1.016-0.654-1.739-0.654c-0.714,0-1.323,0.247-1.829,0.743
			c-0.505,0.496-0.813,1.219-0.922,2.171l-3.851-0.654c0.268-1.318,0.672-2.372,1.212-3.16c0.54-0.787,1.293-1.407,2.26-1.858
			c0.967-0.45,2.05-0.676,3.249-0.676c2.052,0,3.697,0.654,4.937,1.962c1.021,1.071,1.531,2.28,1.531,3.628
			c0,1.913-1.046,3.439-3.138,4.58c1.249,0.268,2.248,0.867,2.996,1.799s1.123,2.057,1.123,3.375c0,1.913-0.699,3.544-2.097,4.892
			c-1.397,1.349-3.138,2.022-5.219,2.022c-1.973,0-3.608-0.567-4.906-1.703C111.555,151.415,110.801,149.931,110.593,148.097z"/>
		<path fill="#D95C26" d="M134.74,131.995c2.11,0,3.761,0.753,4.95,2.26c1.418,1.784,2.127,4.743,2.127,8.876
			c0,4.124-0.714,7.088-2.142,8.892c-1.18,1.486-2.825,2.23-4.936,2.23c-2.122,0-3.832-0.815-5.13-2.446
			c-1.299-1.63-1.948-4.537-1.948-8.72c0-4.104,0.714-7.058,2.142-8.862C130.983,132.738,132.628,131.995,134.74,131.995z
			 M134.74,135.459c-0.506,0-0.957,0.161-1.354,0.483s-0.704,0.899-0.922,1.732c-0.287,1.08-0.431,2.899-0.431,5.456
			c0,2.558,0.128,4.314,0.386,5.271c0.258,0.956,0.583,1.593,0.975,1.91s0.84,0.476,1.346,0.476c0.505,0,0.956-0.161,1.353-0.483
			c0.396-0.321,0.704-0.899,0.922-1.731c0.287-1.071,0.432-2.885,0.432-5.442c0-2.557-0.13-4.313-0.387-5.271
			c-0.258-0.956-0.583-1.596-0.975-1.918S135.245,135.459,134.74,135.459z"/>
		<path fill="#D95C26" d="M143.498,153.881l5.694-8.133l-5.457-7.657h5.101l2.795,4.342l2.943-4.342h4.907l-5.353,7.479l5.843,8.312
			h-5.13l-3.211-4.892l-3.241,4.892H143.498z"/>
		<path fill="#D95C26" d="M172.236,153.881h-4.178v-15.745c-1.525,1.427-3.324,2.482-5.397,3.167v-3.792
			c1.09-0.356,2.276-1.033,3.553-2.029c1.279-0.996,2.156-2.158,2.633-3.486h3.389V153.881z"/>
		<path fill="#D95C26" d="M192.637,137.422l-4.043,0.446c-0.1-0.833-0.357-1.447-0.773-1.844s-0.957-0.595-1.621-0.595
			c-0.883,0-1.629,0.396-2.238,1.189s-0.994,2.443-1.152,4.951c1.041-1.229,2.334-1.844,3.881-1.844
			c1.744,0,3.238,0.664,4.482,1.992s1.867,3.043,1.867,5.145c0,2.23-0.654,4.02-1.963,5.367c-1.309,1.349-2.988,2.022-5.041,2.022
			c-2.199,0-4.01-0.855-5.426-2.565c-1.418-1.71-2.127-4.513-2.127-8.408c0-3.994,0.738-6.874,2.215-8.638
			c1.477-1.765,3.395-2.646,5.754-2.646c1.656,0,3.027,0.463,4.111,1.39C191.648,134.312,192.34,135.657,192.637,137.422z
			 M183.166,146.536c0,1.358,0.313,2.406,0.938,3.145c0.623,0.738,1.338,1.107,2.141,1.107c0.773,0,1.416-0.302,1.932-0.907
			c0.516-0.604,0.773-1.596,0.773-2.974c0-1.417-0.277-2.455-0.832-3.114s-1.248-0.989-2.082-0.989
			c-0.803,0-1.482,0.315-2.037,0.944C183.443,144.378,183.166,145.307,183.166,146.536z"/>
	</g>
</g>
</svg>
