<?xml version="1.0" encoding="utf-8"?>
<!-- Generator: Adobe Illustrator 16.0.0, SVG Export Plug-In . SVG Version: 6.00 Build 0)  -->
<!DOCTYPE svg PUBLIC "-//W3C//DTD SVG 1.1//EN" "http://www.w3.org/Graphics/SVG/1.1/DTD/svg11.dtd">
<svg version="1.1" id="Layer_1" xmlns="http://www.w3.org/2000/svg" xmlns:xlink="http://www.w3.org/1999/xlink" x="0px" y="0px"
	 width="331.5px" height="250px" viewBox="0 0 331.5 250" enable-background="new 0 0 331.5 250" xml:space="preserve">
<g>
	
		<linearGradient id="SVGID_1_" gradientUnits="userSpaceOnUse" x1="166.8955" y1="59.1904" x2="414.7907" y2="-34.8691" gradientTransform="matrix(0.8345 0.5426 -0.5474 0.9019 -108.3758 -43.9721)">
		<stop  offset="0" style="stop-color:#EFA982"/>
		<stop  offset="0.1536" style="stop-color:#ECA178"/>
		<stop  offset="0.4378" style="stop-color:#E68D5F"/>
		<stop  offset="0.8184" style="stop-color:#DC6E36"/>
		<stop  offset="1" style="stop-color:#D85D27"/>
	</linearGradient>
	<path fill="url(#SVGID_1_)" d="M323.981,183.54c-15.887,48.622-98.623,65.208-184.797,37.052
		C53.012,192.436-3.968,130.194,11.917,81.574c15.888-48.621,98.625-65.21,184.797-37.052
		C282.889,72.679,339.867,134.92,323.981,183.54z"/>
	<path fill="#FCC6AA" d="M11.917,81.574c0,0,0.544-1.513,1.564-4.346c0.292-0.694,0.664-1.45,1.048-2.295
		c0.196-0.421,0.4-0.862,0.613-1.322c0.211-0.46,0.428-0.942,0.716-1.408c0.547-0.949,1.134-1.969,1.761-3.058
		c0.637-1.084,1.464-2.138,2.255-3.307c3.313-4.563,8.066-9.621,14.407-14.312c6.301-4.741,14.232-8.957,23.313-12.348
		c2.251-0.907,4.625-1.611,7.02-2.401c1.192-0.415,2.433-0.704,3.667-1.06c1.239-0.331,2.482-0.702,3.751-1.011
		c1.273-0.292,2.557-0.587,3.851-0.885c0.648-0.147,1.298-0.296,1.95-0.443c0.658-0.125,1.318-0.247,1.98-0.372
		c1.326-0.247,2.663-0.496,4.008-0.748c1.349-0.228,2.716-0.406,4.089-0.615c5.49-0.836,11.178-1.314,16.993-1.681
		c5.821-0.262,11.781-0.372,17.83-0.127c6.053,0.151,12.187,0.674,18.385,1.287c3.089,0.386,6.204,0.736,9.317,1.198
		c3.108,0.504,6.247,0.919,9.363,1.544c12.5,2.277,25.039,5.442,37.323,9.404c3.073,1.07,6.088,2.064,9.124,3.183l4.53,1.709
		l2.263,0.856l2.23,0.916c2.977,1.217,5.948,2.423,8.856,3.757c1.459,0.655,2.926,1.287,4.372,1.958
		c1.437,0.69,2.871,1.379,4.303,2.066c2.883,1.336,5.661,2.854,8.467,4.283c2.785,1.465,5.508,3.021,8.228,4.535
		c5.364,3.162,10.624,6.365,15.599,9.816c1.244,0.861,2.506,1.687,3.72,2.568c1.21,0.887,2.416,1.769,3.616,2.646
		c2.428,1.721,4.68,3.625,6.979,5.412c4.479,3.73,8.785,7.476,12.723,11.393c0.985,0.978,1.981,1.931,2.938,2.91
		c0.938,0.998,1.868,1.988,2.791,2.971c0.463,0.49,0.922,0.98,1.38,1.468c0.439,0.506,0.876,1.01,1.312,1.512
		c0.869,1.004,1.731,1.999,2.587,2.987c0.841,0.999,1.626,2.031,2.43,3.031c0.786,1.016,1.617,1.981,2.334,3.021
		c1.467,2.052,2.968,4.021,4.247,6.084c5.326,8.099,9.242,16.185,11.527,23.731c2.347,7.529,3.195,14.419,3.175,20.058
		c-0.053,1.411-0.008,2.749-0.135,4.001c-0.136,1.247-0.265,2.418-0.384,3.507c-0.042,0.547-0.152,1.063-0.254,1.559
		c-0.099,0.497-0.194,0.973-0.285,1.427c-0.188,0.909-0.334,1.738-0.508,2.471c-0.852,2.893-1.306,4.434-1.306,4.434
		s0.406-1.554,1.166-4.466c0.151-0.735,0.271-1.568,0.431-2.478c0.076-0.456,0.156-0.933,0.239-1.429
		c0.087-0.496,0.179-1.011,0.203-1.557c0.087-1.085,0.18-2.251,0.278-3.494c0.096-1.243,0.021-2.572,0.04-3.97
		c-0.108-5.589-1.107-12.381-3.596-19.759c-2.437-7.396-6.482-15.274-11.827-23.212c-1.291-2.018-2.804-3.943-4.279-5.949
		c-0.721-1.017-1.558-1.96-2.349-2.951c-0.81-0.979-1.598-1.987-2.443-2.962c-0.859-0.965-1.726-1.938-2.6-2.918
		c-0.437-0.489-0.876-0.98-1.315-1.475c-0.461-0.477-0.923-0.953-1.386-1.434c-0.927-0.958-1.86-1.924-2.803-2.897
		c-0.957-0.956-1.957-1.885-2.944-2.838c-3.947-3.818-8.262-7.463-12.743-11.09c-4.563-3.525-9.242-7.115-14.244-10.42
		c-4.941-3.394-10.166-6.542-15.494-9.65c-2.702-1.486-5.405-3.017-8.174-4.455c-2.786-1.403-5.546-2.895-8.409-4.205
		c-1.423-0.675-2.848-1.352-4.274-2.027c-1.436-0.66-2.893-1.279-4.343-1.922c-2.887-1.309-5.839-2.49-8.795-3.682l-2.215-0.898
		l-2.236-0.834l-4.479-1.668c-2.991-1.09-6.088-2.086-9.084-3.126c-12.157-3.983-24.573-7.179-36.951-9.495
		c-3.085-0.633-6.193-1.058-9.271-1.571c-3.083-0.473-6.167-0.835-9.226-1.23c-6.137-0.638-12.212-1.181-18.204-1.359
		c-5.989-0.283-11.884-0.155-17.648-0.005c-5.758,0.282-11.394,0.677-16.833,1.428c-1.359,0.188-2.715,0.346-4.053,0.551
		c-1.333,0.23-2.659,0.459-3.973,0.686c-0.656,0.113-1.311,0.227-1.964,0.338c-0.646,0.139-1.291,0.276-1.933,0.414
		c-1.284,0.275-2.556,0.549-3.819,0.818c-1.259,0.289-2.491,0.638-3.721,0.949c-1.225,0.334-2.456,0.602-3.638,0.994
		c-2.376,0.75-4.734,1.41-6.967,2.276c-9.001,3.251-16.919,7.219-23.251,11.75c-6.366,4.486-11.182,9.378-14.568,13.825
		c-0.811,1.139-1.655,2.168-2.312,3.229c-0.654,1.062-1.268,2.057-1.839,2.983c-0.303,0.455-0.531,0.925-0.754,1.376
		c-0.226,0.449-0.442,0.881-0.649,1.293c-0.409,0.827-0.803,1.569-1.116,2.254C12.507,80.08,11.917,81.574,11.917,81.574z"/>
	
		<linearGradient id="SVGID_2_" gradientUnits="userSpaceOnUse" x1="182.916" y1="-441.5171" x2="157.4232" y2="-655.1289" gradientTransform="matrix(-0.8152 0.5791 -0.5791 -0.8152 -62.1807 -468.1502)">
		<stop  offset="0" style="stop-color:#FFD388"/>
		<stop  offset="0.1649" style="stop-color:#FECD7E"/>
		<stop  offset="0.4699" style="stop-color:#FAC061"/>
		<stop  offset="0.8786" style="stop-color:#F5AA2E"/>
		<stop  offset="1" style="stop-color:#F3A41E"/>
	</linearGradient>
	<path fill="url(#SVGID_2_)" d="M10.553,178.381C-6.367,130.114,47.065,67.449,129.895,38.412
		c82.832-29.034,163.694-13.444,180.614,34.823c16.919,48.266-36.514,110.932-119.344,139.966
		C108.334,242.236,27.472,226.646,10.553,178.381z"/>
	<path fill="#F9CB8F" d="M10.553,178.381c0,0-0.478-1.495-1.375-4.302c-0.206-0.706-0.356-1.518-0.567-2.399
		c-0.186-0.887-0.456-1.846-0.622-2.903c-0.148-1.061-0.306-2.2-0.474-3.417c-0.04-0.304-0.081-0.613-0.121-0.928
		c-0.016-0.315-0.032-0.637-0.05-0.962c-0.033-0.653-0.068-1.322-0.104-2.012c-0.23-5.507,0.31-12.27,2.274-19.725
		c0.411-1.887,1.118-3.748,1.718-5.706c0.287-0.984,0.704-1.936,1.078-2.921c0.383-0.981,0.771-1.976,1.165-2.981
		c1.763-3.944,3.756-8.041,6.225-12.091c0.615-1.013,1.212-2.053,1.861-3.073c0.671-1.006,1.35-2.022,2.034-3.047
		c0.342-0.514,0.686-1.029,1.032-1.547c0.367-0.502,0.737-1.004,1.108-1.511c0.744-1.013,1.495-2.033,2.252-3.062
		c0.771-1.019,1.6-2.005,2.408-3.021c0.824-1.003,1.611-2.053,2.5-3.028c1.743-1.979,3.473-4.027,5.374-5.966
		c0.939-0.979,1.864-1.986,2.833-2.962c0.983-0.961,1.974-1.93,2.97-2.902c0.499-0.486,0.999-0.974,1.501-1.464
		c0.519-0.47,1.038-0.941,1.56-1.416c1.042-0.946,2.093-1.9,3.148-2.858c4.305-3.732,8.832-7.405,13.628-10.874
		c9.556-6.99,19.969-13.474,31.016-19.165c11.041-5.72,22.623-10.736,34.554-14.974c2.988-0.979,5.943-2.01,8.959-2.935
		c3.033-0.881,6.04-1.87,9.086-2.637c1.518-0.405,3.035-0.81,4.55-1.215c1.516-0.401,3.049-0.73,4.568-1.098
		c1.525-0.348,3.037-0.737,4.564-1.051c1.528-0.312,3.053-0.623,4.575-0.932c12.183-2.451,24.365-3.89,36.193-4.396
		c5.913-0.283,11.742-0.245,17.437-0.017c1.422,0.089,2.837,0.178,4.243,0.268c0.702,0.043,1.404,0.088,2.104,0.132
		c0.696,0.069,1.392,0.139,2.086,0.206c1.385,0.139,2.762,0.276,4.132,0.412c1.365,0.157,2.718,0.368,4.063,0.547
		c2.695,0.326,5.324,0.847,7.923,1.304c1.302,0.208,2.573,0.536,3.842,0.806c1.267,0.29,2.53,0.543,3.769,0.856
		c1.234,0.331,2.457,0.66,3.67,0.985c0.606,0.163,1.21,0.326,1.81,0.49c0.594,0.188,1.184,0.376,1.771,0.563
		c1.176,0.373,2.34,0.743,3.492,1.11c1.144,0.392,2.259,0.833,3.372,1.239c4.457,1.621,8.571,3.579,12.412,5.557
		c0.937,0.542,1.859,1.076,2.771,1.603c0.906,0.537,1.826,1.02,2.665,1.609c1.69,1.154,3.405,2.169,4.904,3.385
		c6.188,4.599,10.833,9.544,14.091,13.99c0.402,0.561,0.793,1.105,1.175,1.636c0.189,0.265,0.377,0.527,0.563,0.783
		c0.164,0.271,0.325,0.538,0.485,0.801c0.627,1.056,1.215,2.045,1.763,2.965c0.529,0.929,0.916,1.846,1.325,2.653
		c0.386,0.82,0.774,1.548,1.056,2.229c1.051,2.753,1.611,4.221,1.611,4.221s-0.606-1.447-1.743-4.163
		c-0.301-0.67-0.712-1.385-1.121-2.188c-0.434-0.792-0.846-1.689-1.402-2.597c-0.572-0.897-1.187-1.862-1.842-2.891
		c-0.163-0.258-0.33-0.519-0.5-0.783c-0.188-0.251-0.381-0.505-0.577-0.764c-0.389-0.517-0.79-1.049-1.202-1.596
		c-3.335-4.33-8.042-9.108-14.257-13.504c-1.506-1.164-3.227-2.126-4.92-3.225c-0.838-0.563-1.76-1.018-2.665-1.524
		c-0.911-0.499-1.835-1.005-2.77-1.517c-0.962-0.459-1.938-0.924-2.926-1.394c-0.987-0.468-1.972-0.975-3.017-1.38
		c-2.072-0.853-4.169-1.778-6.393-2.516c-1.105-0.386-2.211-0.804-3.346-1.175c-1.144-0.346-2.299-0.693-3.464-1.047
		c-0.584-0.177-1.169-0.353-1.756-0.531c-0.597-0.151-1.195-0.305-1.796-0.457c-1.202-0.304-2.415-0.61-3.638-0.92
		c-1.229-0.294-2.48-0.524-3.736-0.794c-1.259-0.247-2.515-0.554-3.808-0.74c-2.574-0.414-5.177-0.892-7.849-1.176
		c-1.332-0.158-2.67-0.348-4.023-0.481c-1.354-0.115-2.718-0.231-4.09-0.348c-0.686-0.059-1.374-0.117-2.063-0.175
		c-0.693-0.035-1.386-0.067-2.083-0.102c-1.392-0.066-2.79-0.136-4.199-0.204c-1.407-0.045-2.825-0.044-4.249-0.069
		c-1.423-0.016-2.854-0.078-4.292-0.032c-2.876,0.056-5.78,0.056-8.706,0.243c-11.701,0.557-23.758,2.036-35.812,4.522
		c-1.506,0.314-3.016,0.629-4.527,0.944c-1.51,0.318-3.008,0.711-4.516,1.063c-1.504,0.371-3.02,0.704-4.521,1.108
		c-1.499,0.407-2.999,0.816-4.501,1.225c-3.02,0.774-5.968,1.762-8.957,2.646c-2.979,0.924-5.952,1.985-8.931,2.965
		c-11.765,4.116-23.316,9.05-34.262,14.658c-10.968,5.584-21.31,11.957-30.797,18.829c-2.401,1.68-4.67,3.491-6.952,5.245
		c-1.154,0.859-2.229,1.807-3.335,2.703c-1.097,0.907-2.205,1.792-3.276,2.706c-1.058,0.934-2.108,1.861-3.153,2.781
		c-0.522,0.461-1.043,0.922-1.563,1.38c-0.503,0.476-1.004,0.951-1.503,1.425c-0.998,0.948-1.992,1.891-2.978,2.826
		c-0.972,0.951-1.898,1.934-2.841,2.889c-1.909,1.89-3.645,3.888-5.396,5.819c-0.893,0.951-1.685,1.976-2.513,2.955
		c-0.812,0.993-1.646,1.957-2.422,2.952c-0.762,1.006-1.518,2.002-2.267,2.991c-0.374,0.495-0.747,0.988-1.117,1.478
		c-0.349,0.506-0.696,1.01-1.041,1.513c-0.69,1.002-1.375,1.996-2.052,2.98c-0.655,0.997-1.258,2.015-1.88,3.006
		c-1.277,1.965-2.336,3.996-3.423,5.956c-0.564,0.97-1.016,1.979-1.496,2.962c-0.478,0.983-0.949,1.954-1.416,2.915
		c-0.411,0.983-0.816,1.955-1.217,2.914c-0.391,0.961-0.826,1.893-1.131,2.855c-0.635,1.916-1.378,3.741-1.827,5.591
		c-2.111,7.313-2.805,13.986-2.704,19.451c0.019,0.684,0.038,1.35,0.056,1.997c0.009,0.322,0.018,0.642,0.026,0.957
		c0.034,0.311,0.066,0.619,0.099,0.922c0.129,1.213,0.252,2.351,0.365,3.409c0.131,1.055,0.37,2.012,0.526,2.9
		c0.181,0.884,0.307,1.697,0.489,2.409C10.122,176.869,10.553,178.381,10.553,178.381z"/>
	<linearGradient id="SVGID_3_" gradientUnits="userSpaceOnUse" x1="166.2603" y1="136.7754" x2="62.8512" y2="42.606">
			<stop  offset="0" style="stop-color:#FFFFFF"/>
		<stop  offset="0.048" style="stop-color:#FAFAFA"/>
		<stop  offset="0.6723" style="stop-color:#D9DADC"/>
		<stop  offset="1" style="stop-color:#CDCFD0"/>
	</linearGradient>
	<ellipse fill="url(#SVGID_3_)" cx="154.216" cy="125.807" rx="148.561" ry="87.467"/>
	<path fill="#d6c5b4" d="M5.655,125.807c0,0,0.038-1.472,0.11-4.233c0.12-1.372,0.304-3.074,0.574-5.064
		c0.195-0.985,0.406-2.044,0.63-3.173c0.059-0.282,0.116-0.57,0.175-0.86c0.082-0.286,0.164-0.575,0.248-0.869
		c0.171-0.589,0.346-1.192,0.525-1.814c1.476-4.955,4.008-10.793,8.012-16.815c1.961-3.038,4.376-6.042,7.033-9.106
		c0.68-0.752,1.398-1.485,2.117-2.237c0.732-0.736,1.423-1.536,2.221-2.242c1.568-1.438,3.112-2.982,4.848-4.375
		c6.778-5.762,14.813-11.187,23.854-15.883c1.132-0.585,2.27-1.175,3.417-1.768c1.166-0.55,2.34-1.105,3.521-1.663
		c2.346-1.158,4.812-2.117,7.261-3.191c2.482-0.99,4.999-1.983,7.571-2.891c2.585-0.869,5.175-1.813,7.844-2.582
		c10.617-3.26,21.84-5.811,33.383-7.441c11.538-1.662,23.375-2.521,35.217-2.573c2.987,0.062,5.893,0.065,8.86,0.187
		c2.957,0.162,5.928,0.225,8.862,0.493c1.469,0.114,2.938,0.228,4.405,0.341c1.467,0.121,2.925,0.305,4.384,0.454
		c1.458,0.167,2.918,0.29,4.367,0.494c1.448,0.201,2.896,0.4,4.338,0.601c11.543,1.631,22.766,4.184,33.383,7.442
		c5.315,1.611,10.461,3.463,15.417,5.47c2.449,1.075,4.915,2.035,7.26,3.193c1.182,0.559,2.356,1.112,3.523,1.663
		c1.146,0.593,2.285,1.184,3.415,1.769c9.043,4.694,17.076,10.121,23.854,15.884c1.735,1.394,3.279,2.936,4.848,4.375
		c0.798,0.706,1.487,1.506,2.221,2.243c0.718,0.751,1.438,1.482,2.117,2.235c2.657,3.064,5.072,6.068,7.035,9.106
		c4.003,6.024,6.535,11.862,8.009,16.817c0.181,0.622,0.356,1.227,0.525,1.813c0.085,0.295,0.167,0.585,0.249,0.869
		c0.059,0.292,0.117,0.58,0.174,0.862c0.226,1.129,0.436,2.188,0.632,3.173c0.269,1.988,0.451,3.688,0.571,5.063
		c0.072,2.762,0.11,4.235,0.11,4.235s-0.088-1.469-0.253-4.225c-0.166-1.367-0.405-3.054-0.739-5.018
		c-0.464-1.942-0.907-4.195-1.759-6.621c-1.585-4.871-4.233-10.575-8.332-16.416c-4.071-5.854-9.57-11.817-16.361-17.377
		c-6.771-5.579-14.781-10.812-23.782-15.312c-8.979-4.539-18.886-8.451-29.401-11.615c-10.514-3.169-21.63-5.638-33.063-7.194
		c-1.43-0.19-2.862-0.38-4.297-0.573c-1.435-0.195-2.881-0.309-4.325-0.467c-1.445-0.141-2.889-0.314-4.341-0.427
		c-1.453-0.104-2.907-0.211-4.362-0.315c-2.912-0.253-5.825-0.296-8.742-0.442c-2.913-0.108-5.901-0.089-8.802-0.146
		c-11.722-0.008-23.443,0.783-34.871,2.369c-11.433,1.557-22.549,4.025-33.063,7.194c-10.516,3.165-20.424,7.071-29.403,11.613
		c-9.002,4.5-17.01,9.734-23.781,15.313c-1.735,1.349-3.277,2.846-4.847,4.241c-0.799,0.683-1.489,1.46-2.222,2.176
		c-0.715,0.734-1.451,1.432-2.136,2.157c-2.692,2.954-5.148,5.856-7.158,8.803c-4.097,5.842-6.746,11.546-8.331,16.418
		c-0.852,2.426-1.294,4.679-1.758,6.621c-0.334,1.963-0.572,3.647-0.739,5.016C5.743,124.337,5.655,125.807,5.655,125.807z"/>
	<g>
		<path fill="#333" d="M94.63,128.006v-21.797h6.587l3.955,14.868l3.91-14.868h6.602v21.797h-4.089v-17.158l-4.327,17.158h-4.237
			l-4.312-17.158v17.158H94.63z"/>
		<path fill="#333" d="M120.055,128.006v-21.797h16.162v3.688h-11.761v4.832h10.943v3.673h-10.943v5.932h12.177v3.673H120.055z"
			/>
		<path fill="#333" d="M140.35,106.209h8.043c1.814,0,3.197,0.139,4.148,0.416c1.279,0.377,2.374,1.046,3.286,2.008
			c0.912,0.961,1.605,2.139,2.081,3.531s0.714,3.109,0.714,5.151c0,1.794-0.223,3.341-0.669,4.639
			c-0.546,1.586-1.323,2.87-2.335,3.852c-0.763,0.743-1.793,1.323-3.092,1.739c-0.971,0.308-2.27,0.461-3.896,0.461h-8.281V106.209z
			 M144.751,109.896v14.437h3.286c1.229,0,2.116-0.069,2.662-0.208c0.714-0.178,1.306-0.48,1.777-0.906
			c0.471-0.427,0.855-1.128,1.152-2.104c0.297-0.976,0.446-2.307,0.446-3.992c0-1.685-0.148-2.979-0.446-3.881
			c-0.297-0.901-0.714-1.605-1.249-2.111c-0.535-0.505-1.214-0.847-2.037-1.025c-0.615-0.139-1.819-0.208-3.613-0.208H144.751z"/>
		<path fill="#333" d="M162.221,128.006v-21.797h4.401v21.797H162.221z"/>
		<path fill="#333" d="M170.785,106.209h4.401v11.806c0,1.873,0.054,3.088,0.163,3.643c0.188,0.892,0.637,1.608,1.346,2.148
			s1.678,0.811,2.907,0.811c1.249,0,2.19-0.256,2.824-0.766c0.635-0.511,1.017-1.138,1.146-1.881
			c0.129-0.744,0.193-1.978,0.193-3.702v-12.059h4.4v11.448c0,2.617-0.119,4.466-0.356,5.546c-0.238,1.081-0.677,1.992-1.316,2.736
			c-0.639,0.743-1.494,1.336-2.564,1.776c-1.07,0.441-2.468,0.662-4.192,0.662c-2.082,0-3.66-0.241-4.736-0.722
			c-1.075-0.48-1.925-1.104-2.55-1.873c-0.624-0.769-1.035-1.573-1.233-2.416c-0.288-1.249-0.432-3.093-0.432-5.531V106.209z"/>
		<path fill="#333" d="M192.746,128.006v-21.797h6.586l3.955,14.868l3.91-14.868h6.602v21.797h-4.088v-17.158l-4.327,17.158
			h-4.237l-4.312-17.158v17.158H192.746z"/>
		<path fill="#333" d="M123.861,164.546h-4.178v-15.745c-1.526,1.427-3.325,2.482-5.397,3.167v-3.792
			c1.09-0.356,2.275-1.033,3.554-2.029c1.278-0.996,2.156-2.158,2.631-3.486h3.39V164.546z"/>
		<path fill="#333" d="M144.261,148.087l-4.044,0.446c-0.099-0.833-0.356-1.447-0.773-1.844s-0.957-0.595-1.621-0.595
			c-0.882,0-1.628,0.396-2.238,1.189c-0.609,0.793-0.994,2.443-1.152,4.951c1.041-1.229,2.334-1.844,3.881-1.844
			c1.744,0,3.239,0.664,4.482,1.992c1.244,1.328,1.866,3.043,1.866,5.145c0,2.23-0.654,4.02-1.962,5.367
			c-1.309,1.349-2.989,2.022-5.041,2.022c-2.201,0-4.01-0.855-5.427-2.565c-1.418-1.71-2.126-4.513-2.126-8.408
			c0-3.994,0.738-6.874,2.215-8.638c1.477-1.765,3.395-2.646,5.754-2.646c1.655,0,3.025,0.463,4.111,1.39
			S143.963,146.322,144.261,148.087z M134.79,157.201c0,1.358,0.312,2.406,0.937,3.145s1.338,1.107,2.141,1.107
			c0.773,0,1.417-0.302,1.933-0.907c0.515-0.604,0.773-1.596,0.773-2.974c0-1.417-0.277-2.455-0.833-3.114s-1.249-0.989-2.082-0.989
			c-0.803,0-1.482,0.315-2.037,0.944C135.067,155.043,134.79,155.972,134.79,157.201z"/>
		<path fill="#333" d="M145.926,164.546l5.695-8.133l-5.457-7.657h5.1l2.795,4.342l2.944-4.342h4.906l-5.353,7.479l5.844,8.312
			h-5.13l-3.211-4.892l-3.241,4.892H145.926z"/>
		<path fill="#333" d="M174.666,164.546h-4.178v-15.745c-1.526,1.427-3.325,2.482-5.396,3.167v-3.792
			c1.09-0.356,2.274-1.033,3.554-2.029c1.278-0.996,2.155-2.158,2.631-3.486h3.39V164.546z"/>
		<path fill="#333" d="M195.065,148.087l-4.044,0.446c-0.1-0.833-0.357-1.447-0.773-1.844s-0.957-0.595-1.621-0.595
			c-0.882,0-1.628,0.396-2.237,1.189s-0.994,2.443-1.152,4.951c1.041-1.229,2.334-1.844,3.881-1.844
			c1.744,0,3.238,0.664,4.482,1.992s1.866,3.043,1.866,5.145c0,2.23-0.654,4.02-1.963,5.367c-1.309,1.349-2.988,2.022-5.04,2.022
			c-2.2,0-4.01-0.855-5.427-2.565c-1.418-1.71-2.126-4.513-2.126-8.408c0-3.994,0.738-6.874,2.215-8.638
			c1.477-1.765,3.395-2.646,5.754-2.646c1.655,0,3.026,0.463,4.111,1.39S194.768,146.322,195.065,148.087z M185.595,157.201
			c0,1.358,0.312,2.406,0.937,3.145c0.624,0.738,1.338,1.107,2.141,1.107c0.773,0,1.417-0.302,1.933-0.907
			c0.516-0.604,0.773-1.596,0.773-2.974c0-1.417-0.277-2.455-0.833-3.114c-0.555-0.659-1.248-0.989-2.081-0.989
			c-0.803,0-1.482,0.315-2.037,0.944C185.872,155.043,185.595,155.972,185.595,157.201z"/>
	</g>
</g>
</svg>
