<?xml version="1.0" encoding="utf-8"?>
<!-- Generator: Adobe Illustrator 16.0.0, SVG Export Plug-In . SVG Version: 6.00 Build 0)  -->
<!DOCTYPE svg PUBLIC "-//W3C//DTD SVG 1.1//EN" "http://www.w3.org/Graphics/SVG/1.1/DTD/svg11.dtd">
<svg version="1.1" id="Layer_1" xmlns="http://www.w3.org/2000/svg" xmlns:xlink="http://www.w3.org/1999/xlink" x="0px" y="0px"
	 width="390px" height="271.5px" viewBox="0 0 390 271.5" enable-background="new 0 0 390 271.5" xml:space="preserve">
<g>
	
		<linearGradient id="SVGID_1_" gradientUnits="userSpaceOnUse" x1="-1398.8271" y1="219.9375" x2="-1023.1084" y2="219.9375" gradientTransform="matrix(-0.9847 -0.1745 -0.1745 0.9847 -962.4569 -278.6968)">
		<stop  offset="0" style="stop-color:#FFD388"/>
		<stop  offset="0.1649" style="stop-color:#FECD7E"/>
		<stop  offset="0.4699" style="stop-color:#FAC061"/>
		<stop  offset="0.8786" style="stop-color:#F5AA2E"/>
		<stop  offset="1" style="stop-color:#F3A41E"/>
	</linearGradient>
	<path fill="url(#SVGID_1_)" d="M22.802,25.092C24.919,13.143,36.324,5.17,48.275,7.286L339.88,96.445
		c11.951,2.117,19.923,13.522,17.805,25.473l8.643,117.967c-2.116,11.952-13.522,19.924-25.476,17.807L24.407,236.064
		c-11.952-2.116-19.923-13.521-17.806-25.474L22.802,25.092z"/>
	<path fill="#FDC995" d="M22.802,25.092l0.448-2.11c0.201-0.69,0.434-1.373,0.65-2.063c0.261-0.673,0.568-1.327,0.851-1.993
		c0.324-0.645,0.696-1.266,1.043-1.9c0.387-0.61,0.819-1.193,1.228-1.793c0.45-0.568,0.933-1.111,1.403-1.664
		c0.509-0.516,1.043-1.01,1.564-1.518l1.708-1.358l1.836-1.184c0.647-0.333,1.29-0.681,1.945-1.001
		c0.678-0.268,1.35-0.558,2.036-0.807c0.702-0.199,1.398-0.427,2.108-0.604c0.719-0.13,1.436-0.29,2.159-0.395
		c0.729-0.059,1.459-0.145,2.19-0.18c0.732,0.012,1.467,0.007,2.2,0.035l2.189,0.246l0.018,0.003l0.041,0.012l18.288,5.369
		l18.268,5.431l36.531,10.884l72.958,22.104l72.845,22.475c6.074,1.858,12.127,3.796,18.189,5.69l18.182,5.714l18.184,5.714
		l18.162,5.776l-0.058-0.014l2.143,0.52c0.695,0.227,1.386,0.483,2.076,0.724c0.677,0.285,1.332,0.616,1.997,0.922
		c0.645,0.347,1.263,0.743,1.894,1.112c0.604,0.408,1.182,0.862,1.771,1.292c0.561,0.469,1.09,0.973,1.636,1.456
		c0.506,0.526,0.987,1.073,1.481,1.608l1.318,1.742l1.136,1.862c0.315,0.656,0.646,1.305,0.948,1.964
		c0.251,0.681,0.519,1.356,0.746,2.044c0.177,0.703,0.383,1.399,0.536,2.105c0.106,0.717,0.244,1.428,0.326,2.145
		c0.037,0.723,0.102,1.442,0.113,2.163c-0.033,0.722-0.05,1.442-0.097,2.16l-0.308,2.137l0.232-2.143
		c0.024-0.718,0.016-1.436,0.024-2.15c-0.038-0.716-0.126-1.429-0.188-2.141c-0.104-0.707-0.266-1.405-0.395-2.106
		c-0.177-0.692-0.401-1.371-0.6-2.056c-0.246-0.668-0.534-1.321-0.793-1.983c-0.313-0.64-0.652-1.266-0.978-1.898l-1.155-1.791
		l-1.328-1.666c-0.494-0.508-0.976-1.026-1.479-1.525c-0.543-0.456-1.068-0.931-1.62-1.371c-0.584-0.4-1.15-0.824-1.745-1.205
		c-0.619-0.34-1.225-0.707-1.854-1.026c-0.647-0.276-1.284-0.579-1.94-0.838c-0.672-0.213-1.338-0.443-2.012-0.644l-2.063-0.445
		l-0.04-0.008l-0.019-0.006l-18.288-5.369l-18.27-5.431l-18.269-5.43c-6.086-1.821-12.188-3.599-18.264-5.454l-72.956-22.105
		l-72.845-22.477l-36.37-11.406L66.296,13.53L48.133,7.754l0.057,0.014l-2.091-0.29c-0.702-0.043-1.406-0.056-2.111-0.087
		c-0.704,0.017-1.407,0.083-2.112,0.119c-0.7,0.085-1.394,0.221-2.092,0.329c-0.688,0.153-1.367,0.356-2.053,0.532
		c-0.67,0.225-1.328,0.489-1.993,0.731c-0.644,0.295-1.276,0.617-1.915,0.925l-1.818,1.108l-1.7,1.284
		c-0.522,0.483-1.056,0.955-1.57,1.446c-0.471,0.534-0.965,1.049-1.426,1.591c-0.421,0.576-0.866,1.136-1.269,1.726
		c-0.362,0.614-0.752,1.216-1.095,1.843c-0.301,0.648-0.628,1.288-0.91,1.945c-0.236,0.674-0.491,1.345-0.715,2.027L22.802,25.092z"
		/>
	
		<linearGradient id="SVGID_2_" gradientUnits="userSpaceOnUse" x1="502.3428" y1="-171.2925" x2="106.3268" y2="95.0623" gradientTransform="matrix(1 0 0 -1 -56 126.5)">
		<stop  offset="0" style="stop-color:#EFA982"/>
		<stop  offset="0.1536" style="stop-color:#EDA278"/>
		<stop  offset="0.4378" style="stop-color:#E98D5F"/>
		<stop  offset="0.8184" style="stop-color:#E46E36"/>
		<stop  offset="1" style="stop-color:#E05C26"/>
	</linearGradient>
	<path fill="url(#SVGID_2_)" d="M379.471,241.925c0,12.138-9.839,21.978-21.976,21.978l-302.688-36.92
		c-12.137,0-21.977-9.84-21.977-21.978L3.742,90.354c0-12.137,9.84-21.977,21.977-21.977l315.366-33.91
		c12.138,0,21.977,9.838,21.977,21.977L379.471,241.925z"/>
	<path fill="#FCB86B" d="M3.742,90.354l0.074-2.156c0.078-0.715,0.188-1.428,0.282-2.146c0.14-0.707,0.328-1.404,0.491-2.109
		c0.206-0.69,0.465-1.367,0.697-2.054c0.274-0.668,0.599-1.316,0.896-1.979c0.344-0.637,0.725-1.255,1.09-1.883
		c0.413-0.597,0.851-1.176,1.276-1.766l1.444-1.636l1.602-1.484c0.58-0.439,1.151-0.894,1.74-1.323
		c0.621-0.381,1.231-0.784,1.864-1.147c0.656-0.319,1.302-0.664,1.97-0.962c0.685-0.253,1.362-0.535,2.056-0.763
		c0.708-0.187,1.411-0.397,2.125-0.56c0.723-0.115,1.446-0.247,2.172-0.348l2.198-0.138l-0.051,0.004l19.687-2.339l19.694-2.267
		l39.391-4.517l78.821-8.673l78.862-8.284l39.45-3.964L321.3,35.89l19.733-1.901l0.037-0.002h0.014l2.199,0.137
		c0.726,0.101,1.447,0.232,2.172,0.35c0.713,0.162,1.417,0.373,2.124,0.558c0.694,0.229,1.371,0.512,2.057,0.765
		c0.668,0.297,1.313,0.643,1.972,0.961c0.632,0.365,1.241,0.768,1.863,1.147c0.589,0.431,1.159,0.885,1.739,1.324l1.603,1.485
		l1.443,1.636c0.425,0.589,0.863,1.17,1.276,1.766c0.365,0.628,0.745,1.246,1.09,1.883c0.297,0.661,0.621,1.31,0.896,1.979
		c0.23,0.685,0.489,1.361,0.697,2.054c0.161,0.703,0.351,1.401,0.489,2.108c0.094,0.716,0.203,1.429,0.281,2.144l0.072,2.158
		l-0.144-2.151c-0.102-0.71-0.234-1.416-0.351-2.123c-0.162-0.697-0.373-1.384-0.557-2.074c-0.227-0.678-0.506-1.339-0.755-2.008
		c-0.293-0.65-0.635-1.279-0.947-1.919c-0.358-0.617-0.758-1.209-1.129-1.815c-0.419-0.575-0.862-1.133-1.293-1.699l-1.45-1.563
		l-1.597-1.408c-0.576-0.415-1.142-0.844-1.723-1.245c-0.614-0.357-1.216-0.732-1.836-1.07c-0.646-0.293-1.277-0.612-1.93-0.884
		c-0.669-0.228-1.327-0.484-2.003-0.688c-0.688-0.159-1.369-0.348-2.061-0.487c-0.699-0.093-1.396-0.204-2.094-0.283l-2.111-0.081
		l0.053-0.002l-19.688,2.338l-19.694,2.267l-39.392,4.516l-78.82,8.671l-78.862,8.283l-39.451,3.962L45.5,66.951l-19.734,1.9
		l-0.013,0.002l-0.038,0.001l-2.111,0.08c-0.699,0.08-1.396,0.19-2.095,0.284c-0.689,0.139-1.371,0.327-2.059,0.487
		c-0.675,0.205-1.334,0.461-2.004,0.689c-0.651,0.271-1.284,0.59-1.928,0.883c-0.621,0.338-1.222,0.715-1.835,1.069
		c-0.583,0.403-1.147,0.831-1.724,1.246l-1.597,1.409l-1.45,1.563c-0.429,0.566-0.874,1.123-1.293,1.698
		c-0.371,0.607-0.769,1.201-1.128,1.816c-0.313,0.64-0.654,1.27-0.947,1.92c-0.25,0.669-0.529,1.329-0.756,2.007
		c-0.183,0.69-0.393,1.377-0.555,2.074c-0.115,0.706-0.249,1.412-0.35,2.122L3.742,90.354z"/>
	
		<linearGradient id="SVGID_3_" gradientUnits="userSpaceOnUse" x1="272.0898" y1="-261.2432" x2="90.6494" y2="31.6913" gradientTransform="matrix(0.9767 -0.2146 -0.2146 -0.9767 -28.2917 26.3525)">
		<stop  offset="0" style="stop-color:#FFFFFF"/>
		<stop  offset="0.048" style="stop-color:#FAFAFA"/>
		<stop  offset="0.6723" style="stop-color:#D9DADC"/>
		<stop  offset="1" style="stop-color:#CDCFD0"/>
	</linearGradient>
	<path fill="url(#SVGID_3_)" d="M36.443,42.644c-0.324-12.134,9.25-22.231,21.383-22.556L361.39,48.931
		c12.134-0.323,24.968,8.832,22.556,21.383l-17.617,137.329c-3.098,12.664-7.318,25.133-21.383,22.555L80.342,249.005
		c-12.133,0.322-22.231-9.251-22.555-21.384L36.443,42.644z"/>
	<path fill="#FFFFFF" d="M36.443,42.644l0.015-2.158c0.058-0.717,0.149-1.432,0.224-2.152c0.121-0.71,0.29-1.412,0.434-2.121
		c0.188-0.697,0.429-1.38,0.641-2.073c0.257-0.674,0.563-1.332,0.843-2.002c0.327-0.646,0.691-1.273,1.04-1.91
		c0.396-0.608,0.819-1.201,1.229-1.802l1.4-1.673l1.562-1.529c0.567-0.455,1.126-0.925,1.704-1.369
		c0.611-0.398,1.211-0.816,1.833-1.199c0.647-0.336,1.284-0.697,1.943-1.014c0.679-0.272,1.349-0.572,2.037-0.819
		c0.703-0.203,1.4-0.435,2.11-0.616c0.719-0.134,1.438-0.287,2.162-0.406l2.195-0.197L57.83,19.6l0.042,0.005l18.993,1.589
		l18.986,1.657l37.971,3.333L209.73,33.2l75.873,7.399c6.324,0.602,12.643,1.281,18.961,1.923l18.96,1.948l18.959,1.95l18.951,2.011
		l-0.061-0.002l2.264,0.076l2.242,0.281c0.74,0.14,1.473,0.318,2.206,0.476c0.727,0.191,1.438,0.443,2.153,0.662
		c0.711,0.244,1.393,0.565,2.088,0.843c0.688,0.298,1.336,0.685,2.004,1.021c0.663,0.352,1.269,0.803,1.902,1.198
		c0.628,0.408,1.186,0.92,1.777,1.374c0.584,0.468,1.085,1.034,1.628,1.547c0.525,0.533,0.961,1.148,1.445,1.719
		c0.449,0.598,0.815,1.257,1.222,1.883c0.348,0.66,0.638,1.354,0.956,2.027c0.228,0.712,0.448,1.426,0.652,2.14
		c0.108,0.738,0.245,1.473,0.326,2.21c0,0.743,0.028,1.487,0.004,2.227l-0.303,2.201l0.227-2.205c0-0.737-0.054-1.475-0.077-2.21
		c-0.105-0.728-0.268-1.446-0.396-2.169c-0.227-0.698-0.468-1.392-0.712-2.08c-0.338-0.651-0.644-1.318-1.004-1.953
		c-0.422-0.599-0.795-1.229-1.246-1.803c-0.487-0.545-0.927-1.133-1.451-1.641c-0.545-0.485-1.043-1.025-1.625-1.467
		c-0.591-0.428-1.144-0.912-1.768-1.294c-0.629-0.37-1.226-0.795-1.88-1.119c-0.66-0.312-1.296-0.672-1.974-0.943
		c-0.686-0.253-1.354-0.548-2.047-0.767c-0.702-0.194-1.396-0.422-2.104-0.589c-0.717-0.135-1.427-0.29-2.144-0.405l-2.169-0.217
		l-2.173-0.02h-0.041l-0.021-0.002l-18.992-1.596l-18.985-1.654l-18.987-1.656c-6.328-0.561-12.659-1.082-18.983-1.684
		l-75.908-7.021l-75.874-7.403l-37.919-3.878l-18.959-1.949L57.78,20.572l0.059,0.003l-2.107,0.136
		c-0.696,0.099-1.39,0.227-2.086,0.338c-0.686,0.16-1.361,0.363-2.044,0.542c-0.669,0.223-1.322,0.497-1.984,0.741
		c-0.644,0.288-1.268,0.623-1.904,0.934c-0.611,0.354-1.202,0.746-1.806,1.117c-0.571,0.418-1.125,0.859-1.69,1.29l-1.558,1.45
		l-1.409,1.601c-0.414,0.577-0.843,1.146-1.247,1.731c-0.354,0.617-0.736,1.221-1.078,1.846c-0.297,0.646-0.621,1.285-0.897,1.943
		c-0.231,0.675-0.493,1.341-0.702,2.024c-0.165,0.696-0.357,1.388-0.501,2.089c-0.097,0.709-0.211,1.417-0.295,2.129L36.443,42.644z
		"/>
	<g>
		<path fill="#D95C26" d="M78.143,95.32V78.406h5.48c2.077,0,3.43,0.084,4.061,0.254c0.969,0.254,1.781,0.806,2.435,1.655
			c0.654,0.849,0.981,1.948,0.981,3.294c0,1.038-0.189,1.911-0.565,2.619c-0.377,0.708-0.856,1.264-1.437,1.667
			c-0.581,0.404-1.171,0.672-1.771,0.802c-0.815,0.162-1.996,0.242-3.542,0.242h-2.227v6.381H78.143z M81.558,81.268v4.8h1.869
			c1.346,0,2.246-0.089,2.7-0.266c0.454-0.177,0.81-0.454,1.067-0.831c0.257-0.377,0.387-0.815,0.387-1.315
			c0-0.615-0.181-1.123-0.542-1.522c-0.362-0.4-0.819-0.65-1.373-0.75c-0.408-0.077-1.227-0.115-2.458-0.115L81.558,81.268
			L81.558,81.268z"/>
		<path fill="#D95C26" d="M93.996,95.32V78.544h3.415v13.927h8.492v2.85L93.996,95.32L93.996,95.32z"/>
		<path fill="#D95C26" d="M123.59,95.32h-3.715l-1.477-3.842h-6.761l-1.396,3.842h-3.623l6.588-16.914h3.611L123.59,95.32z
			 M117.302,88.628l-2.331-6.276l-2.285,6.276H117.302z"/>
		<path fill="#D95C26" d="M127.675,95.32v-7.119l-6.196-9.795h4.004l3.98,6.691l3.899-6.691h3.935l-6.219,9.818v7.096H127.675z"/>
		<path fill="#D95C26" d="M147.531,95.32l-4.039-16.914h3.496l2.55,11.618l3.092-11.618h4.061l2.965,11.814l2.596-11.814h3.438
			l-4.107,16.914h-3.623l-3.369-12.646l-3.357,12.646H147.531z"/>
		<path fill="#D95C26" d="M167.33,95.32V78.406h3.415V95.32H167.33z"/>
		<path fill="#D95C26" d="M177.806,95.32V81.268h-5.019v-2.861h13.441v2.861h-5.007V95.32H177.806z"/>
		<path fill="#D95C26" d="M188.443,95.32V78.406h3.416v6.657h6.692v-6.657h3.414V95.32h-3.414v-7.396h-6.692v7.396H188.443z"/>
		<path fill="#D95C26" d="M211.37,86.967c0-1.723,0.257-3.169,0.772-4.338c0.385-0.861,0.908-1.635,1.574-2.319
			c0.665-0.685,1.395-1.192,2.188-1.522c1.054-0.446,2.269-0.67,3.646-0.67c2.492,0,4.486,0.773,5.982,2.319
			c1.495,1.546,2.243,3.696,2.243,6.449c0,2.731-0.741,4.867-2.227,6.41c-1.484,1.542-3.47,2.313-5.953,2.313
			c-2.516,0-4.516-0.767-6-2.302C212.111,91.772,211.37,89.659,211.37,86.967z M214.889,86.852c0,1.915,0.442,3.367,1.327,4.355
			c0.884,0.988,2.007,1.482,3.369,1.482c1.36,0,2.479-0.49,3.353-1.471c0.873-0.981,1.31-2.452,1.31-4.413
			c0-1.938-0.427-3.385-1.274-4.339c-0.851-0.953-1.979-1.431-3.387-1.431c-1.408,0-2.543,0.483-3.404,1.448
			C215.318,83.45,214.889,84.905,214.889,86.852z"/>
		<path fill="#D95C26" d="M230.419,78.406h3.415v9.161c0,1.453,0.042,2.396,0.127,2.826c0.146,0.692,0.494,1.248,1.044,1.667
			c0.55,0.42,1.302,0.629,2.257,0.629c0.969,0,1.698-0.197,2.191-0.594c0.492-0.396,0.788-0.883,0.888-1.46
			c0.101-0.576,0.15-1.534,0.15-2.873v-9.355h3.415v8.884c0,2.03-0.092,3.465-0.276,4.304c-0.185,0.838-0.524,1.546-1.021,2.123
			c-0.496,0.576-1.159,1.036-1.99,1.379c-0.831,0.342-1.915,0.513-3.254,0.513c-1.615,0-2.84-0.187-3.676-0.56
			c-0.834-0.373-1.494-0.857-1.979-1.453c-0.484-0.597-0.804-1.222-0.958-1.875c-0.224-0.97-0.334-2.4-0.334-4.292V78.406
			L230.419,78.406z"/>
		<path fill="#D95C26" d="M247.518,95.32V78.406h7.188c1.808,0,3.121,0.151,3.938,0.455c0.819,0.305,1.477,0.845,1.969,1.621
			c0.492,0.777,0.738,1.666,0.738,2.666c0,1.269-0.373,2.316-1.119,3.144s-1.861,1.348-3.346,1.563
			c0.737,0.431,1.348,0.904,1.827,1.419c0.481,0.516,1.129,1.431,1.944,2.746l2.064,3.3h-4.084l-2.47-3.681
			c-0.877-1.315-1.478-2.144-1.8-2.486c-0.323-0.342-0.665-0.577-1.026-0.704c-0.362-0.127-0.935-0.19-1.72-0.19h-0.691v7.062
			L247.518,95.32L247.518,95.32z M250.934,85.56h2.526c1.638,0,2.661-0.069,3.067-0.208c0.408-0.139,0.729-0.377,0.959-0.715
			c0.229-0.339,0.347-0.762,0.347-1.27c0-0.569-0.151-1.028-0.456-1.379c-0.304-0.35-0.732-0.571-1.286-0.663
			c-0.276-0.039-1.108-0.058-2.491-0.058h-2.666V85.56L250.934,85.56z"/>
		<path fill="#D95C26" d="M271.031,95.32V78.406h3.414V95.32H271.031z"/>
		<path fill="#D95C26" d="M288.523,89.102l3.311,1.05c-0.507,1.846-1.352,3.217-2.532,4.113c-1.18,0.896-2.679,1.344-4.493,1.344
			c-2.246,0-4.093-0.767-5.539-2.302c-1.445-1.534-2.168-3.632-2.168-6.294c0-2.814,0.727-5.001,2.181-6.559
			s3.364-2.337,5.733-2.337c2.069,0,3.75,0.611,5.043,1.835c0.769,0.723,1.346,1.762,1.729,3.115l-3.381,0.808
			c-0.199-0.877-0.617-1.569-1.251-2.077c-0.635-0.508-1.406-0.762-2.313-0.762c-1.254,0-2.271,0.45-3.052,1.351
			c-0.781,0.899-1.171,2.357-1.171,4.373c0,2.138,0.384,3.661,1.153,4.568c0.769,0.908,1.769,1.361,3,1.361
			c0.906,0,1.688-0.288,2.342-0.865C287.77,91.247,288.238,90.34,288.523,89.102z"/>
		<path fill="#D95C26" d="M294.073,86.967c0-1.723,0.257-3.169,0.772-4.338c0.385-0.861,0.908-1.635,1.574-2.319
			c0.665-0.685,1.395-1.192,2.188-1.522c1.054-0.446,2.269-0.67,3.646-0.67c2.492,0,4.486,0.773,5.982,2.319
			s2.243,3.696,2.243,6.449c0,2.731-0.741,4.867-2.227,6.41c-1.484,1.542-3.47,2.313-5.954,2.313c-2.515,0-4.515-0.767-5.999-2.302
			C294.814,91.772,294.073,89.659,294.073,86.967z M297.592,86.852c0,1.915,0.442,3.367,1.327,4.355
			c0.884,0.988,2.007,1.482,3.369,1.482c1.36,0,2.479-0.49,3.353-1.471c0.872-0.981,1.31-2.452,1.31-4.413
			c0-1.938-0.426-3.385-1.275-4.339c-0.85-0.953-1.979-1.431-3.386-1.431c-1.408,0-2.543,0.483-3.404,1.448
			C298.021,83.45,297.592,84.905,297.592,86.852z"/>
		<path fill="#D95C26" d="M313.179,95.32V78.406h3.322l6.923,11.295V78.406h3.173V95.32h-3.427l-6.818-11.03v11.03H313.179z"/>
		<path fill="#D95C26" d="M329.343,89.816l3.323-0.322c0.2,1.115,0.605,1.935,1.217,2.457c0.612,0.523,1.438,0.785,2.477,0.785
			c1.1,0,1.929-0.233,2.485-0.698c0.559-0.466,0.836-1.01,0.836-1.633c0-0.4-0.116-0.74-0.352-1.021
			c-0.234-0.28-0.646-0.524-1.229-0.732c-0.399-0.139-1.312-0.385-2.733-0.738c-1.831-0.454-3.115-1.012-3.854-1.673
			c-1.038-0.931-1.558-2.065-1.558-3.403c0-0.862,0.244-1.668,0.732-2.418s1.191-1.32,2.111-1.713
			c0.919-0.393,2.028-0.589,3.328-0.589c2.123,0,3.722,0.466,4.794,1.396c1.073,0.931,1.637,2.173,1.69,3.727l-3.415,0.15
			c-0.146-0.869-0.46-1.494-0.94-1.875c-0.479-0.381-1.202-0.571-2.163-0.571c-0.992,0-1.77,0.204-2.331,0.611
			c-0.36,0.262-0.542,0.611-0.542,1.05c0,0.4,0.169,0.742,0.508,1.027c0.432,0.361,1.478,0.738,3.139,1.131
			c1.662,0.392,2.891,0.798,3.687,1.217s1.419,0.992,1.869,1.719c0.45,0.728,0.675,1.625,0.675,2.694
			c0,0.97-0.269,1.877-0.808,2.723c-0.538,0.847-1.3,1.476-2.284,1.887s-2.211,0.617-3.681,0.617c-2.14,0-3.78-0.494-4.928-1.482
			C330.251,93.149,329.566,91.709,329.343,89.816z"/>
	</g>
</g>
<g>
	
		<radialGradient id="SVGID_4_" cx="115.4312" cy="-0.5244" r="8.5173" gradientTransform="matrix(1 0 0 0.2886 0 209.5519)" gradientUnits="userSpaceOnUse">
		<stop  offset="0.0914" style="stop-color:#465154"/>
		<stop  offset="0.1736" style="stop-color:#5F676A"/>
		<stop  offset="0.3326" style="stop-color:#898D90"/>
		<stop  offset="0.4572" style="stop-color:#A3A4A7"/>
		<stop  offset="0.5313" style="stop-color:#ADADB0"/>
		<stop  offset="0.5367" style="stop-color:#B1B1B4"/>
		<stop  offset="0.5835" style="stop-color:#CDCDCF"/>
		<stop  offset="0.6336" style="stop-color:#E3E3E4"/>
		<stop  offset="0.6883" style="stop-color:#F3F3F3"/>
		<stop  offset="0.7509" style="stop-color:#FCFCFC"/>
		<stop  offset="0.8387" style="stop-color:#FFFFFF"/>
	</radialGradient>
	<ellipse fill="url(#SVGID_4_)" cx="115.431" cy="209.399" rx="8.52" ry="2.459"/>
	<linearGradient id="SVGID_5_" gradientUnits="userSpaceOnUse" x1="110.8579" y1="163.8096" x2="120.0049" y2="163.8096">
		<stop  offset="0" style="stop-color:#A7A8AB"/>
		<stop  offset="0" style="stop-color:#D1D2D3"/>
		<stop  offset="0.1236" style="stop-color:#8A9197"/>
		<stop  offset="0.203" style="stop-color:#B1B5B5"/>
		<stop  offset="0.3025" style="stop-color:#DBDCD7"/>
		<stop  offset="0.3806" style="stop-color:#F5F4EB"/>
		<stop  offset="0.427" style="stop-color:#FFFDF3"/>
		<stop  offset="0.4612" style="stop-color:#F4F3E9"/>
		<stop  offset="0.5217" style="stop-color:#D6D7D0"/>
		<stop  offset="0.6012" style="stop-color:#A6AAA7"/>
		<stop  offset="0.6956" style="stop-color:#646D6E"/>
		<stop  offset="0.736" style="stop-color:#465154"/>
		<stop  offset="0.7876" style="stop-color:#697072"/>
		<stop  offset="0.8881" style="stop-color:#A7A9A7"/>
		<stop  offset="0.9617" style="stop-color:#CECCC8"/>
		<stop  offset="1" style="stop-color:#DDD9D5"/>
		<stop  offset="1" style="stop-color:#E4E1DE"/>
	</linearGradient>
	<path fill="url(#SVGID_5_)" d="M120.005,209.056c0,2.035-9.147,1.717-9.147,0c0-2.809,0-91.901,0-91.901h9.147
		C120.005,117.154,120.005,206.248,120.005,209.056z"/>
	<radialGradient id="SVGID_6_" cx="115.4316" cy="139.4219" r="14.0478" gradientUnits="userSpaceOnUse">
		<stop  offset="0.5744" style="stop-color:#140F10"/>
		<stop  offset="0.7977" style="stop-color:#140F10"/>
		<stop  offset="1" style="stop-color:#140F10"/>
	</radialGradient>
	<path opacity="0.2" fill="url(#SVGID_6_)" d="M110.858,158.755h9.147c0-16.543,0-32.319,0-38.666h-9.147
		C110.858,126.436,110.858,142.212,110.858,158.755z"/>
	<linearGradient id="SVGID_7_" gradientUnits="userSpaceOnUse" x1="110.2671" y1="138.3906" x2="172.54" y2="138.3906">
		<stop  offset="0" style="stop-color:#B02826"/>
		<stop  offset="0.101" style="stop-color:#EE4034"/>
		<stop  offset="0.2308" style="stop-color:#B02A26"/>
		<stop  offset="1" style="stop-color:#AE1F23"/>
	</linearGradient>
	<rect x="110.267" y="119.059" fill="url(#SVGID_7_)" width="62.273" height="38.665"/>
</g>
<g>
	
		<radialGradient id="SVGID_8_" cx="258.8145" cy="1911.3359" r="29.2983" gradientTransform="matrix(1 0 0 0.0731 0 70.0589)" gradientUnits="userSpaceOnUse">
		<stop  offset="0" style="stop-color:#666769"/>
		<stop  offset="0.5577" style="stop-color:#F7F7F8"/>
		<stop  offset="1" style="stop-color:#FFFFFF"/>
	</radialGradient>
	<ellipse fill="url(#SVGID_8_)" cx="258.815" cy="209.718" rx="29.299" ry="2.141"/>
	<g>
		<g>
			<g>
				<path fill="#717275" d="M286.988,144.257c-0.756,0-1.376-0.6-1.396-1.359c-0.009-0.307-0.142-7.576,5.158-12.368
					c3.692-3.339,9.014-4.591,15.815-3.721c0.766,0.098,1.308,0.798,1.209,1.564c-0.098,0.766-0.796,1.309-1.564,1.209
					c-5.941-0.76-10.507,0.25-13.565,3.004c-4.347,3.914-4.259,10.176-4.258,10.24c0.018,0.771-0.594,1.411-1.363,1.431
					C287.012,144.257,287,144.257,286.988,144.257z"/>
			</g>
			<g>
				<g>
					<path fill="#FAAF40" d="M310.726,125.738c-0.039,0-0.078-0.001-0.117-0.005c-0.77-0.063-1.342-0.739-1.277-1.508l0.741-8.939
						c0.063-0.77,0.736-1.344,1.509-1.278c0.77,0.064,1.342,0.739,1.277,1.509l-0.741,8.939
						C312.058,125.186,311.445,125.738,310.726,125.738z"/>
				</g>
				<g>
					<path fill="#FAAF40" d="M313.615,127.49c-0.401,0-0.799-0.171-1.075-0.503c-0.494-0.593-0.414-1.475,0.18-1.969l5.907-4.924
						c0.593-0.494,1.475-0.414,1.969,0.179c0.494,0.594,0.415,1.475-0.178,1.97l-5.908,4.924
						C314.249,127.384,313.932,127.49,313.615,127.49z"/>
				</g>
				<g>
					<path fill="#FAAF40" d="M324.064,131.915c-0.075,0-0.152-0.006-0.229-0.019l-9.503-1.572c-0.762-0.126-1.277-0.846-1.151-1.608
						c0.127-0.762,0.845-1.275,1.607-1.151l9.503,1.572c0.762,0.126,1.277,0.846,1.151,1.608
						C325.329,131.429,324.736,131.915,324.064,131.915z"/>
				</g>
				<g>
					<path fill="#FAAF40" d="M317.567,139.408c-0.426,0-0.845-0.193-1.12-0.56l-4.617-6.164c-0.463-0.618-0.337-1.494,0.281-1.957
						c0.619-0.463,1.495-0.337,1.958,0.281l4.616,6.164c0.462,0.618,0.337,1.494-0.28,1.958
						C318.153,139.318,317.859,139.408,317.567,139.408z"/>
				</g>
				<g>
					<path fill="#FAAF40" d="M308.897,143.515c-0.06,0-0.119-0.004-0.18-0.012c-0.767-0.098-1.308-0.799-1.209-1.564l1.215-9.464
						c0.099-0.767,0.804-1.305,1.564-1.209c0.767,0.098,1.309,0.799,1.21,1.565l-1.215,9.464
						C310.192,142.999,309.591,143.515,308.897,143.515z"/>
				</g>
			</g>
		</g>
		<path fill="#020202" d="M292.497,154.095c-1.027,1.027-2.692,1.027-3.72,0l-13.022-13.021c-1.027-1.028-1.027-2.694,0-3.722
			l5.726-5.726c1.027-1.028,2.692-1.028,3.72,0l13.023,13.022c1.027,1.027,1.027,2.693,0,3.721L292.497,154.095z"/>
		<radialGradient id="SVGID_9_" cx="260.8906" cy="154.5361" r="27.6312" gradientUnits="userSpaceOnUse">
			<stop  offset="0" style="stop-color:#353435"/>
			<stop  offset="1" style="stop-color:#231F20"/>
		</radialGradient>
		<circle fill="url(#SVGID_9_)" cx="258.815" cy="170.92" r="38.798"/>
		<g opacity="0.1">
			<g>
				<linearGradient id="SVGID_10_" gradientUnits="userSpaceOnUse" x1="234.2783" y1="147.1758" x2="262.4639" y2="147.1758">
					<stop  offset="0" style="stop-color:#FFFFFF"/>
					<stop  offset="1" style="stop-color:#231F20"/>
				</linearGradient>
				<path fill="url(#SVGID_10_)" d="M235.877,155.524c-0.175,0-0.354-0.029-0.527-0.091c-0.833-0.291-1.272-1.203-0.981-2.035
					c1.9-5.433,5.752-9.819,10.848-12.353c5.108-2.54,10.854-2.914,16.177-1.052c0.834,0.291,1.273,1.202,0.981,2.036
					c-0.291,0.833-1.203,1.271-2.035,0.98c-4.505-1.574-9.37-1.256-13.701,0.896c-4.345,2.16-7.63,5.905-9.253,10.546
					C237.154,155.111,236.537,155.524,235.877,155.524z"/>
			</g>
		</g>
	</g>
</g>
</svg>
