<?xml version="1.0" encoding="utf-8"?>
<!-- Generator: Adobe Illustrator 16.0.0, SVG Export Plug-In . SVG Version: 6.00 Build 0)  -->
<!DOCTYPE svg PUBLIC "-//W3C//DTD SVG 1.1//EN" "http://www.w3.org/Graphics/SVG/1.1/DTD/svg11.dtd">
<svg version="1.1" id="Layer_1" xmlns="http://www.w3.org/2000/svg" xmlns:xlink="http://www.w3.org/1999/xlink" x="0px" y="0px"
	 width="497px" height="221.5px" viewBox="0 0 497 221.5" enable-background="new 0 0 497 221.5" xml:space="preserve">
<g>
	<linearGradient id="SVGID_1_" gradientUnits="userSpaceOnUse" x1="507.998" y1="-6.6963" x2="108.9052" y2="174.39">
		<stop  offset="0" style="stop-color:#FFD388"/>
		<stop  offset="0.1649" style="stop-color:#FECD7E"/>
		<stop  offset="0.4699" style="stop-color:#FAC061"/>
		<stop  offset="0.8786" style="stop-color:#F5AA2E"/>
		<stop  offset="1" style="stop-color:#F3A41E"/>
	</linearGradient>
	<path fill="url(#SVGID_1_)" d="M10.491,55.793c-4.833-20.698,7.066-25.395,17.095-25.969l445.214-9.673
		c10.036,0.764,17.555,9.515,16.792,19.551l-23.555,145.859c-0.761,10.037-9.514,17.556-19.55,16.793l-387.673-9.171
		c-10.035-0.761-17.553-9.516-16.792-19.55L10.491,55.793z"/>
	<path fill="#FFD89F" d="M10.491,55.793c-1.178-4.856-1.689-10.036-0.334-14.938c0.751-2.41,2.075-4.664,3.949-6.385
		c1.861-1.733,4.177-2.917,6.59-3.673c2.422-0.754,4.941-1.125,7.475-1.237l7.535-0.215l15.07-0.428l60.283-1.553l60.285-1.448
		l60.288-1.387l120.579-2.506l60.293-1.092l30.147-0.521l30.146-0.452h0.014h0.006l1.79,0.24c0.589,0.123,1.173,0.274,1.759,0.411
		c0.575,0.175,1.141,0.388,1.708,0.58c0.557,0.229,1.096,0.497,1.643,0.745c0.529,0.282,1.039,0.602,1.56,0.902
		c0.498,0.335,0.976,0.7,1.463,1.05c0.459,0.386,0.9,0.791,1.353,1.186l1.229,1.313l1.093,1.427
		c0.315,0.511,0.642,1.012,0.946,1.526c0.263,0.537,0.545,1.066,0.794,1.609c0.21,0.562,0.439,1.114,0.63,1.679
		c0.152,0.579,0.33,1.15,0.464,1.732c0.094,0.589,0.213,1.176,0.289,1.768c0.037,0.596,0.091,1.19,0.116,1.786l-0.059,1.788
		l0.034-1.788c-0.034-0.593-0.095-1.188-0.139-1.781c-0.087-0.588-0.212-1.172-0.314-1.757c-0.14-0.578-0.323-1.146-0.482-1.718
		c-0.197-0.56-0.435-1.106-0.649-1.66c-0.254-0.537-0.54-1.058-0.809-1.588c-0.311-0.506-0.643-0.999-0.96-1.499l-1.101-1.399
		l-1.234-1.28c-0.449-0.384-0.893-0.779-1.352-1.156c-0.485-0.336-0.961-0.691-1.455-1.014c-0.517-0.289-1.023-0.598-1.547-0.869
		c-0.542-0.234-1.076-0.493-1.626-0.71c-0.562-0.181-1.118-0.384-1.685-0.547c-0.576-0.127-1.151-0.267-1.73-0.381l-1.758-0.211
		h0.019l-30.138,0.858l-30.143,0.788l-60.282,1.527l-120.576,2.734l-60.289,1.234l-60.292,1.171l-60.293,1.067l-15.074,0.228
		l-7.538,0.112c-2.481,0.076-4.982,0.41-7.367,1.12c-2.38,0.71-4.661,1.838-6.505,3.509c-1.855,1.659-3.184,3.852-3.959,6.222
		C8.944,45.743,9.376,50.919,10.491,55.793z"/>
	<linearGradient id="SVGID_2_" gradientUnits="userSpaceOnUse" x1="377.8887" y1="-27.0356" x2="264.1433" y2="107.0004">
		<stop  offset="0" style="stop-color:#EFA982"/>
		<stop  offset="0.1536" style="stop-color:#EDA278"/>
		<stop  offset="0.4378" style="stop-color:#E98D5F"/>
		<stop  offset="0.8184" style="stop-color:#E46E36"/>
		<stop  offset="1" style="stop-color:#E05C26"/>
	</linearGradient>
	<path fill="url(#SVGID_2_)" d="M476.487,189.56c-0.999,10.014-9.929,17.324-19.942,16.326l-419.064,6.493
		c-10.015-0.999-17.324-9.927-16.325-19.942L51.819,24.416C52.818,14.399,61.747,7.091,71.762,8.09l387.347,18.346
		c10.015,0.999,17.323,9.927,16.324,19.941L476.487,189.56z"/>
	<path fill="#FCB86B" d="M51.819,24.416c0,0,0.059-0.432,0.173-1.266c0.038-0.421,0.155-0.93,0.309-1.535
		c0.079-0.3,0.137-0.635,0.251-0.976c0.12-0.341,0.247-0.704,0.381-1.09c0.585-1.521,1.481-3.365,3.005-5.207
		c1.509-1.838,3.655-3.656,6.455-4.967c2.769-1.334,6.3-1.955,9.966-1.62c3.665,0.136,7.628,0.281,11.862,0.436
		c8.468,0.327,18.022,0.695,28.446,1.097c10.421,0.426,21.711,0.886,33.653,1.375c11.941,0.491,24.535,0.981,37.559,1.594
		c26.049,1.178,53.834,2.434,81.619,3.689c27.78,1.375,55.56,2.75,81.602,4.039c13.024,0.621,25.608,1.316,37.543,1.961
		c11.934,0.642,23.217,1.25,33.633,1.812c10.414,0.546,19.96,1.102,28.421,1.598c4.231,0.245,8.19,0.476,11.851,0.688
		c0.243,0.019,0.421,0.012,0.718,0.053l0.67,0.108c0.442,0.083,0.878,0.118,1.316,0.239c0.875,0.228,1.732,0.441,2.519,0.777
		c0.813,0.268,1.543,0.688,2.273,1.038c0.356,0.192,0.69,0.422,1.029,0.627c0.336,0.21,0.671,0.41,0.967,0.657
		c2.486,1.838,4.231,4.044,5.349,6.145c1.128,2.105,1.644,4.093,1.916,5.698c0.058,0.404,0.11,0.786,0.159,1.143
		c0.044,0.358,0.035,0.697,0.053,1.006c0.032,0.624,0.046,1.146,0,1.567c-0.053,0.84-0.081,1.274-0.081,1.274
		s0.015-0.435,0.044-1.275c0.035-0.42,0.006-0.942-0.044-1.561c-0.027-0.31-0.027-0.645-0.081-1c-0.06-0.353-0.123-0.729-0.19-1.129
		c-0.315-1.587-0.882-3.533-2.052-5.571c-1.162-2.027-2.919-4.143-5.37-5.879c-0.292-0.235-0.624-0.423-0.955-0.619
		c-0.333-0.191-0.659-0.407-1.009-0.587c-0.719-0.324-1.43-0.715-2.222-0.957c-0.771-0.31-1.588-0.493-2.418-0.694
		c-0.412-0.107-0.868-0.135-1.309-0.207l-0.671-0.095c-0.151-0.021-0.435-0.021-0.646-0.031c-3.666-0.135-7.629-0.28-11.862-0.436
		c-8.47-0.306-18.025-0.654-28.445-1.097c-10.422-0.424-21.713-0.885-33.653-1.372c-11.941-0.487-24.535-0.986-37.56-1.597
		c-26.047-1.179-53.833-2.435-81.618-3.691c-27.78-1.375-55.56-2.752-81.604-4.04c-13.022-0.621-25.607-1.324-37.541-1.963
		c-11.935-0.644-23.217-1.252-33.632-1.812c-10.415-0.585-19.96-1.122-28.422-1.598c-4.23-0.246-8.189-0.474-11.85-0.688
		c-3.633-0.404-6.977,0.124-9.722,1.363c-2.745,1.218-4.887,2.943-6.425,4.703c-1.549,1.766-2.487,3.563-3.11,5.057
		c-0.145,0.378-0.282,0.736-0.409,1.07c-0.123,0.337-0.189,0.664-0.277,0.962c-0.17,0.596-0.302,1.103-0.352,1.521
		C51.89,23.987,51.819,24.416,51.819,24.416z"/>
	<linearGradient id="SVGID_3_" gradientUnits="userSpaceOnUse" x1="317.1074" y1="-80.6104" x2="248.9803" y2="123.3316">
		<stop  offset="0" style="stop-color:#EFA982"/>
		<stop  offset="0.1536" style="stop-color:#EDA278"/>
		<stop  offset="0.4378" style="stop-color:#E98D5F"/>
		<stop  offset="0.8184" style="stop-color:#E46E36"/>
		<stop  offset="1" style="stop-color:#E05C26"/>
	</linearGradient>
	<path fill="url(#SVGID_3_)" d="M474.582,67.353c0-12.137-9.84-21.977-21.977-21.977L53.886,27.054
		c-0.875,0-1.738,0.057-2.586,0.155L38.985,93.468l15.388,96.67l258.819,10.135l126.601-7.664c12.14,0,21.977-9.838,21.977-21.978
		L474.582,67.353z"/>
	<linearGradient id="SVGID_4_" gradientUnits="userSpaceOnUse" x1="262.4668" y1="127.041" x2="91.9296" y2="-28.2587">
		<stop  offset="0" style="stop-color:#FFFFFF"/>
		<stop  offset="0.048" style="stop-color:#FAFAFA"/>
		<stop  offset="0.6723" style="stop-color:#D9DADC"/>
		<stop  offset="1" style="stop-color:#CDCFD0"/>
	</linearGradient>
	<path fill="url(#SVGID_4_)" d="M459.133,167.995c0,12.138-9.838,21.976-21.976,21.976l-374.35,10.302
		c-12.137,0-21.977-9.838-21.977-21.977L29.272,46.393c0-12.136,9.84-21.977,21.977-21.977l398.72,18.323
		c12.136,0,21.977,9.84,21.977,21.976L459.133,167.995z"/>
	<path fill="#FFFFFF" d="M29.272,46.393c0,0,0.017-0.456,0.05-1.343c0.014-0.443,0.022-0.992,0.135-1.64
		c0.102-0.646,0.155-1.411,0.392-2.239c0.102-0.418,0.209-0.861,0.322-1.327c0.159-0.453,0.326-0.931,0.5-1.429
		c0.156-0.508,0.393-1.009,0.641-1.532c0.247-0.521,0.479-1.081,0.819-1.607c1.217-2.18,3.029-4.498,5.584-6.493
		c0.322-0.245,0.648-0.494,0.979-0.747c0.336-0.242,0.706-0.447,1.064-0.678c0.708-0.479,1.499-0.858,2.305-1.25
		c0.395-0.215,0.819-0.375,1.251-0.532c0.43-0.161,0.864-0.326,1.303-0.49c0.454-0.122,0.912-0.245,1.375-0.369l0.699-0.187
		c0.237-0.051,0.479-0.082,0.72-0.123c0.484-0.08,0.974-0.159,1.467-0.239c0.497-0.047,1.003-0.065,1.512-0.1l0.769-0.046
		c0.292-0.008,0.518,0.013,0.783,0.019c0.511,0.02,1.026,0.037,1.546,0.056c2.081,0.075,4.237,0.151,6.465,0.231
		c8.909,0.336,18.961,0.713,29.926,1.125c10.964,0.436,22.842,0.907,35.405,1.408c12.563,0.503,25.812,1.005,39.513,1.631
		c27.405,1.203,56.638,2.487,85.871,3.771c29.227,1.402,58.453,2.804,85.852,4.118c13.701,0.636,26.941,1.343,39.498,1.998
		c12.556,0.655,24.426,1.274,35.385,1.846c10.956,0.597,20.999,1.142,29.902,1.625c2.225,0.126,4.379,0.247,6.459,0.363
		c1.04,0.06,2.062,0.118,3.063,0.176c0.501,0.034,0.997,0.053,1.49,0.1c0.499,0.08,0.99,0.158,1.48,0.237
		c0.242,0.043,0.487,0.076,0.727,0.126l0.698,0.187c0.464,0.124,0.922,0.247,1.376,0.368c0.438,0.166,0.873,0.329,1.303,0.491
		c0.431,0.158,0.854,0.317,1.251,0.532c0.806,0.393,1.596,0.77,2.304,1.249c0.359,0.23,0.729,0.437,1.065,0.679
		c0.332,0.252,0.657,0.502,0.979,0.747c2.555,1.997,4.367,4.313,5.585,6.495c0.341,0.527,0.571,1.085,0.819,1.607
		c0.249,0.521,0.485,1.022,0.64,1.53c0.176,0.501,0.342,0.978,0.5,1.432c0.113,0.466,0.222,0.907,0.323,1.326
		c0.236,0.829,0.289,1.592,0.391,2.237c0.114,0.646,0.122,1.198,0.137,1.641c0.032,0.887,0.05,1.343,0.05,1.343
		s-0.029-0.456-0.087-1.339c-0.025-0.442-0.05-0.992-0.181-1.634c-0.117-0.641-0.19-1.396-0.449-2.215
		c-0.111-0.411-0.229-0.848-0.354-1.307c-0.169-0.445-0.348-0.912-0.534-1.403c-0.167-0.498-0.416-0.986-0.676-1.497
		c-0.257-0.509-0.5-1.053-0.851-1.564c-1.263-2.11-3.093-4.343-5.625-6.245c-0.319-0.234-0.643-0.47-0.97-0.71
		c-0.333-0.229-0.697-0.423-1.054-0.64c-0.698-0.455-1.475-0.807-2.268-1.172c-0.386-0.201-0.803-0.348-1.224-0.492
		c-0.421-0.148-0.846-0.299-1.274-0.45c-0.442-0.109-0.889-0.22-1.341-0.33l-0.68-0.167c-0.228-0.045-0.462-0.069-0.694-0.104
		c-0.465-0.067-0.935-0.135-1.409-0.203c-0.485-0.036-0.987-0.044-1.486-0.067c-1.001-0.038-2.022-0.075-3.063-0.114
		c-2.081-0.074-4.237-0.152-6.464-0.232c-8.909-0.334-18.962-0.711-29.925-1.123c-10.965-0.436-22.843-0.907-35.405-1.407
		c-12.563-0.499-25.813-1.009-39.515-1.633c-27.405-1.203-56.636-2.487-85.869-3.772c-29.227-1.403-58.454-2.806-85.853-4.121
		c-13.701-0.634-26.94-1.348-39.497-2c-12.556-0.654-24.427-1.272-35.385-1.844c-10.957-0.596-21-1.142-29.903-1.626
		c-2.226-0.124-4.38-0.245-6.459-0.362c-0.52-0.029-1.035-0.058-1.545-0.087c-0.247-0.011-0.53-0.036-0.743-0.033l-0.741,0.03
		c-0.492,0.022-0.981,0.031-1.463,0.067c-0.478,0.067-0.953,0.135-1.422,0.201c-0.235,0.036-0.47,0.062-0.7,0.104l-0.68,0.169
		c-0.452,0.11-0.899,0.22-1.34,0.329c-0.43,0.152-0.854,0.303-1.274,0.452c-0.422,0.143-0.838,0.291-1.226,0.492
		c-0.791,0.364-1.568,0.716-2.267,1.17c-0.354,0.219-0.719,0.41-1.053,0.641c-0.327,0.241-0.65,0.477-0.969,0.71
		c-2.533,1.902-4.363,4.135-5.625,6.247c-0.351,0.511-0.594,1.054-0.852,1.564c-0.259,0.509-0.507,0.998-0.675,1.496
		c-0.186,0.49-0.364,0.957-0.534,1.403c-0.125,0.46-0.243,0.896-0.355,1.308c-0.259,0.818-0.331,1.571-0.45,2.214
		c-0.13,0.641-0.155,1.191-0.18,1.633C29.302,45.937,29.272,46.393,29.272,46.393z"/>
	<g>
		<path fill="#EA8551" d="M90.662,121.804l7.26-0.705c0.437,2.438,1.323,4.228,2.659,5.369c1.336,1.144,3.139,1.715,5.406,1.715
			c2.403,0,4.214-0.508,5.433-1.524c1.217-1.018,1.827-2.207,1.827-3.567c0-0.875-0.255-1.617-0.769-2.23
			c-0.512-0.613-1.407-1.146-2.684-1.6c-0.874-0.305-2.866-0.842-5.974-1.615c-4-0.99-6.806-2.209-8.419-3.654
			c-2.269-2.033-3.403-4.513-3.403-7.437c0-1.882,0.533-3.642,1.6-5.279c1.068-1.64,2.605-2.887,4.614-3.742
			c2.007-0.858,4.431-1.287,7.271-1.287c4.639,0,8.13,1.017,10.473,3.05c2.345,2.034,3.576,4.746,3.693,8.141l-7.461,0.329
			c-0.319-1.899-1.004-3.265-2.054-4.097c-1.051-0.831-2.626-1.247-4.727-1.247c-2.167,0-3.865,0.444-5.091,1.336
			c-0.791,0.572-1.185,1.335-1.185,2.294c0,0.874,0.369,1.621,1.109,2.242c0.941,0.791,3.227,1.614,6.856,2.471
			c3.63,0.856,6.314,1.744,8.053,2.66s3.1,2.168,4.084,3.754c0.981,1.589,1.475,3.551,1.475,5.886c0,2.119-0.589,4.103-1.765,5.948
			c-1.176,1.85-2.839,3.224-4.991,4.123c-2.151,0.898-4.831,1.349-8.041,1.349c-4.671,0-8.26-1.08-10.763-3.24
			C92.646,129.086,91.15,125.938,90.662,121.804z"/>
		<path fill="#EA8551" d="M135.302,133.828v-30.7h-10.964v-6.251h29.364v6.251h-10.939v30.7H135.302z"/>
		<path fill="#EA8551" d="M188.008,133.828h-8.116l-3.227-8.394h-14.771l-3.05,8.394h-7.915l14.393-36.951h7.89L188.008,133.828z
			 M174.271,119.209l-5.092-13.712l-4.991,13.712H174.271z"/>
		<path fill="#EA8551" d="M191.991,133.828V96.877h15.703c3.949,0,6.818,0.331,8.608,0.995c1.79,0.665,3.222,1.845,4.298,3.54
			c1.075,1.698,1.613,3.64,1.613,5.825c0,2.772-0.816,5.061-2.445,6.867c-1.629,1.808-4.066,2.945-7.31,3.416
			c1.613,0.941,2.946,1.975,3.995,3.099c1.05,1.127,2.466,3.128,4.247,6l4.512,7.209h-8.922l-5.394-8.04
			c-1.916-2.875-3.228-4.685-3.933-5.433c-0.706-0.747-1.454-1.261-2.244-1.537c-0.79-0.277-2.041-0.417-3.755-0.417h-1.513v15.427
			H191.991z M199.451,112.505h5.52c3.58,0,5.815-0.151,6.705-0.454c0.89-0.302,1.588-0.824,2.092-1.563
			c0.505-0.74,0.756-1.663,0.756-2.772c0-1.243-0.333-2.248-0.996-3.014c-0.664-0.764-1.602-1.246-2.81-1.449
			c-0.606-0.084-2.421-0.125-5.445-0.125h-5.823V112.505z"/>
		<path fill="#EA8551" d="M237.564,133.828v-30.7h-10.966v-6.251h29.366v6.251h-10.94v30.7H237.564z"/>
		<path fill="#EA8551" d="M292.312,120.242v-6.226h16.08v14.721c-1.563,1.513-3.827,2.844-6.792,3.996
			c-2.967,1.149-5.97,1.725-9.013,1.725c-3.864,0-7.232-0.811-10.107-2.431c-2.872-1.623-5.031-3.94-6.477-6.958
			c-1.446-3.016-2.168-6.297-2.168-9.842c0-3.849,0.806-7.269,2.42-10.261c1.613-2.989,3.975-5.283,7.082-6.88
			c2.369-1.228,5.318-1.841,8.847-1.841c4.588,0,8.171,0.962,10.752,2.887c2.579,1.924,4.239,4.582,4.978,7.977l-7.411,1.387
			c-0.52-1.813-1.498-3.246-2.936-4.297c-1.437-1.051-3.231-1.576-5.383-1.576c-3.26,0-5.852,1.033-7.775,3.101
			c-1.925,2.067-2.886,5.134-2.886,9.2c0,4.387,0.975,7.676,2.924,9.868c1.95,2.192,4.503,3.289,7.662,3.289
			c1.563,0,3.13-0.306,4.701-0.92c1.57-0.612,2.921-1.356,4.047-2.229v-4.689H292.312z"/>
		<path fill="#EA8551" d="M348.595,133.828h-8.116l-3.226-8.394h-14.771l-3.052,8.394h-7.912l14.391-36.951h7.892L348.595,133.828z
			 M334.857,119.209l-5.09-13.712l-4.991,13.712H334.857z"/>
		<path fill="#EA8551" d="M352.453,133.828V96.877h11.164l6.706,25.206l6.63-25.206h11.19v36.951h-6.931v-29.089l-7.337,29.089
			h-7.184l-7.309-29.089v29.089H352.453z"/>
		<path fill="#EA8551" d="M395.554,133.828V96.877h27.399v6.251h-19.938v8.191h18.551v6.226h-18.551v10.058h20.643v6.226H395.554z"
			/>
	</g>
</g>
</svg>
